<svg width="525" height="317" viewBox="0 0 525 317" fill="none" xmlns="http://www.w3.org/2000/svg">
<path d="M62.3801 311.002C62.3801 314.002 51.7901 316.412 38.7301 316.412C25.6701 316.412 15.0901 314.002 15.0901 311.002C15.0901 308.002 25.6801 305.582 38.7301 305.582C51.7801 305.582 62.3801 308.002 62.3801 311.002Z" fill="#E8EAF6"/>
<path d="M38.7301 316.939C27.0301 316.939 14.5901 314.869 14.5901 311.029C14.5901 307.189 27.0301 305.109 38.7301 305.109C50.4301 305.109 62.8801 307.179 62.8801 311.029C62.8801 314.879 50.4401 316.939 38.7301 316.939ZM38.7301 306.109C25.0901 306.109 15.5901 308.699 15.5901 311.029C15.5901 313.359 25.0901 315.939 38.7301 315.939C52.3701 315.939 61.8801 313.349 61.8801 311.029C61.8801 308.709 52.3701 306.109 38.7301 306.109Z" fill="#E8EAF6"/>
<path d="M178.01 37.0703H93.25V296.72H178.01V37.0703Z" fill="#E8EAF6"/>
<path d="M244.74 37.0703H177.75V295.89H244.74V37.0703Z" fill="#F5F5F5"/>
<path d="M169.7 78.6289H97.8V98.8689H169.7V78.6289Z" fill="#CACDDF"/>
<path d="M103.84 81.1719H99.8101V96.6619H103.84V81.1719Z" fill="#F5F5F5"/>
<path d="M107.3 85.7085C108.007 85.7085 108.58 85.1354 108.58 84.4284C108.58 83.7215 108.007 83.1484 107.3 83.1484C106.593 83.1484 106.02 83.7215 106.02 84.4284C106.02 85.1354 106.593 85.7085 107.3 85.7085Z" fill="#FAFAFA"/>
<path d="M107.3 91.1811C108.007 91.1811 108.58 90.608 108.58 89.9011C108.58 89.1942 108.007 88.6211 107.3 88.6211C106.593 88.6211 106.02 89.1942 106.02 89.9011C106.02 90.608 106.593 91.1811 107.3 91.1811Z" fill="#FAFAFA"/>
<path d="M117.65 83.1484H113.69V95.0484H117.65V83.1484Z" fill="#F5F5F5"/>
<path d="M123.37 83.1484H119.41V95.0484H123.37V83.1484Z" fill="#F5F5F5"/>
<path d="M129.08 83.1484H125.12V95.0484H129.08V83.1484Z" fill="#F5F5F5"/>
<path d="M134.8 83.1484H130.84V95.0484H134.8V83.1484Z" fill="#F5F5F5"/>
<path d="M140.51 83.1484H136.55V95.0484H140.51V83.1484Z" fill="#F5F5F5"/>
<path d="M146.23 83.1484H142.27V95.0484H146.23V83.1484Z" fill="#F5F5F5"/>
<path d="M151.94 83.1484H147.98V95.0484H151.94V83.1484Z" fill="#F5F5F5"/>
<path d="M157.66 83.1484H153.7V95.0484H157.66V83.1484Z" fill="#F5F5F5"/>
<path d="M163.37 83.1484H159.41V95.0484H163.37V83.1484Z" fill="#F5F5F5"/>
<path d="M169.09 83.1484H165.13V95.0484H169.09V83.1484Z" fill="#F5F5F5"/>
<path d="M169.7 111.051H97.8V131.291H169.7V111.051Z" fill="#CACDDF"/>
<path d="M103.84 113.602H99.8101V129.092H103.84V113.602Z" fill="#F5F5F5"/>
<path d="M107.3 118.13C108.007 118.13 108.58 117.557 108.58 116.85C108.58 116.143 108.007 115.57 107.3 115.57C106.593 115.57 106.02 116.143 106.02 116.85C106.02 117.557 106.593 118.13 107.3 118.13Z" fill="#FAFAFA"/>
<path d="M107.3 123.611C108.007 123.611 108.58 123.038 108.58 122.331C108.58 121.624 108.007 121.051 107.3 121.051C106.593 121.051 106.02 121.624 106.02 122.331C106.02 123.038 106.593 123.611 107.3 123.611Z" fill="#FAFAFA"/>
<path d="M117.65 115.57H113.69V127.47H117.65V115.57Z" fill="#F5F5F5"/>
<path d="M123.37 115.57H119.41V127.47H123.37V115.57Z" fill="#F5F5F5"/>
<path d="M129.08 115.57H125.12V127.47H129.08V115.57Z" fill="#F5F5F5"/>
<path d="M134.8 115.57H130.84V127.47H134.8V115.57Z" fill="#F5F5F5"/>
<path d="M140.51 115.57H136.55V127.47H140.51V115.57Z" fill="#F5F5F5"/>
<path d="M146.23 115.57H142.27V127.47H146.23V115.57Z" fill="#F5F5F5"/>
<path d="M151.94 115.57H147.98V127.47H151.94V115.57Z" fill="#F5F5F5"/>
<path d="M157.66 115.57H153.7V127.47H157.66V115.57Z" fill="#F5F5F5"/>
<path d="M163.37 115.57H159.41V127.47H163.37V115.57Z" fill="#F5F5F5"/>
<path d="M169.09 115.57H165.13V127.47H169.09V115.57Z" fill="#F5F5F5"/>
<path d="M169.7 143.469H97.8V163.709H169.7V143.469Z" fill="#CACDDF"/>
<path d="M103.84 146.02H99.8101V161.51H103.84V146.02Z" fill="#F5F5F5"/>
<path d="M107.3 150.56C108.007 150.56 108.58 149.987 108.58 149.28C108.58 148.573 108.007 148 107.3 148C106.593 148 106.02 148.573 106.02 149.28C106.02 149.987 106.593 150.56 107.3 150.56Z" fill="#FAFAFA"/>
<path d="M108.58 154.749C108.58 155.002 108.505 155.249 108.364 155.46C108.224 155.67 108.024 155.834 107.79 155.931C107.556 156.028 107.299 156.054 107.05 156.004C106.802 155.955 106.574 155.833 106.395 155.654C106.216 155.475 106.094 155.247 106.045 154.998C105.995 154.75 106.021 154.493 106.117 154.259C106.214 154.025 106.378 153.825 106.589 153.684C106.799 153.544 107.047 153.469 107.3 153.469C107.639 153.469 107.965 153.604 108.205 153.844C108.445 154.084 108.58 154.409 108.58 154.749Z" fill="#FAFAFA"/>
<path d="M117.65 148H113.69V159.9H117.65V148Z" fill="#F5F5F5"/>
<path d="M123.37 148H119.41V159.9H123.37V148Z" fill="#F5F5F5"/>
<path d="M129.08 148H125.12V159.9H129.08V148Z" fill="#F5F5F5"/>
<path d="M134.8 148H130.84V159.9H134.8V148Z" fill="#F5F5F5"/>
<path d="M140.51 148H136.55V159.9H140.51V148Z" fill="#F5F5F5"/>
<path d="M146.23 148H142.27V159.9H146.23V148Z" fill="#F5F5F5"/>
<path d="M151.94 148H147.98V159.9H151.94V148Z" fill="#F5F5F5"/>
<path d="M157.66 148H153.7V159.9H157.66V148Z" fill="#F5F5F5"/>
<path d="M163.37 148H159.41V159.9H163.37V148Z" fill="#F5F5F5"/>
<path d="M169.09 148H165.13V159.9H169.09V148Z" fill="#F5F5F5"/>
<path d="M169.7 175.898H97.8V196.138H169.7V175.898Z" fill="#CACDDF"/>
<path d="M103.84 178.441H99.8101V193.931H103.84V178.441Z" fill="#F5F5F5"/>
<path d="M107.3 182.982C108.007 182.982 108.58 182.409 108.58 181.702C108.58 180.995 108.007 180.422 107.3 180.422C106.593 180.422 106.02 180.995 106.02 181.702C106.02 182.409 106.593 182.982 107.3 182.982Z" fill="#FAFAFA"/>
<path d="M108.58 187.178C108.58 187.347 108.547 187.513 108.483 187.668C108.418 187.824 108.324 187.965 108.205 188.084C108.086 188.202 107.945 188.297 107.79 188.361C107.635 188.425 107.468 188.458 107.3 188.458C107.132 188.458 106.965 188.425 106.81 188.361C106.655 188.297 106.514 188.202 106.395 188.084C106.276 187.965 106.182 187.824 106.117 187.668C106.053 187.513 106.02 187.347 106.02 187.178C106.02 187.01 106.053 186.844 106.117 186.689C106.182 186.533 106.276 186.392 106.395 186.273C106.514 186.154 106.655 186.06 106.81 185.996C106.965 185.932 107.132 185.898 107.3 185.898C107.468 185.898 107.635 185.932 107.79 185.996C107.945 186.06 108.086 186.154 108.205 186.273C108.324 186.392 108.418 186.533 108.483 186.689C108.547 186.844 108.58 187.01 108.58 187.178Z" fill="#FAFAFA"/>
<path d="M117.65 180.422H113.69V192.322H117.65V180.422Z" fill="#F5F5F5"/>
<path d="M123.37 180.422H119.41V192.322H123.37V180.422Z" fill="#F5F5F5"/>
<path d="M129.08 180.422H125.12V192.322H129.08V180.422Z" fill="#F5F5F5"/>
<path d="M134.8 180.422H130.84V192.322H134.8V180.422Z" fill="#F5F5F5"/>
<path d="M140.51 180.422H136.55V192.322H140.51V180.422Z" fill="#F5F5F5"/>
<path d="M146.23 180.422H142.27V192.322H146.23V180.422Z" fill="#F5F5F5"/>
<path d="M151.94 180.422H147.98V192.322H151.94V180.422Z" fill="#F5F5F5"/>
<path d="M157.66 180.422H153.7V192.322H157.66V180.422Z" fill="#F5F5F5"/>
<path d="M163.37 180.422H159.41V192.322H163.37V180.422Z" fill="#F5F5F5"/>
<path d="M169.09 180.422H165.13V192.322H169.09V180.422Z" fill="#F5F5F5"/>
<path d="M169.7 208.32H97.8V228.56H169.7V208.32Z" fill="#CACDDF"/>
<path d="M103.84 210.871H99.8101V226.361H103.84V210.871Z" fill="#F5F5F5"/>
<path d="M107.3 215.412C108.007 215.412 108.58 214.838 108.58 214.132C108.58 213.425 108.007 212.852 107.3 212.852C106.593 212.852 106.02 213.425 106.02 214.132C106.02 214.838 106.593 215.412 107.3 215.412Z" fill="#FAFAFA"/>
<path d="M108.58 219.6C108.58 219.853 108.505 220.101 108.364 220.311C108.224 220.522 108.024 220.686 107.79 220.783C107.556 220.88 107.299 220.905 107.05 220.856C106.802 220.806 106.574 220.684 106.395 220.505C106.216 220.326 106.094 220.098 106.045 219.85C105.995 219.602 106.021 219.344 106.117 219.11C106.214 218.877 106.378 218.677 106.589 218.536C106.799 218.395 107.047 218.32 107.3 218.32C107.639 218.32 107.965 218.455 108.205 218.695C108.445 218.935 108.58 219.261 108.58 219.6Z" fill="#FAFAFA"/>
<path d="M117.65 212.852H113.69V224.752H117.65V212.852Z" fill="#F5F5F5"/>
<path d="M123.37 212.852H119.41V224.752H123.37V212.852Z" fill="#F5F5F5"/>
<path d="M129.08 212.852H125.12V224.752H129.08V212.852Z" fill="#F5F5F5"/>
<path d="M134.8 212.852H130.84V224.752H134.8V212.852Z" fill="#F5F5F5"/>
<path d="M140.51 212.852H136.55V224.752H140.51V212.852Z" fill="#F5F5F5"/>
<path d="M146.23 212.852H142.27V224.752H146.23V212.852Z" fill="#F5F5F5"/>
<path d="M151.94 212.852H147.98V224.752H151.94V212.852Z" fill="#F5F5F5"/>
<path d="M157.66 212.852H153.7V224.752H157.66V212.852Z" fill="#F5F5F5"/>
<path d="M163.37 212.852H159.41V224.752H163.37V212.852Z" fill="#F5F5F5"/>
<path d="M169.09 212.852H165.13V224.752H169.09V212.852Z" fill="#F5F5F5"/>
<path d="M169.7 240.742H97.8V260.982H169.7V240.742Z" fill="#CACDDF"/>
<path d="M103.84 243.289H99.8101V258.779H103.84V243.289Z" fill="#F5F5F5"/>
<path d="M107.3 247.83C108.007 247.83 108.58 247.256 108.58 246.55C108.58 245.843 108.007 245.27 107.3 245.27C106.593 245.27 106.02 245.843 106.02 246.55C106.02 247.256 106.593 247.83 107.3 247.83Z" fill="#FAFAFA"/>
<path d="M108.58 251.999C108.58 252.252 108.505 252.499 108.364 252.71C108.224 252.92 108.024 253.084 107.79 253.181C107.556 253.278 107.299 253.304 107.05 253.254C106.802 253.205 106.574 253.083 106.395 252.904C106.216 252.725 106.094 252.497 106.045 252.248C105.995 252 106.021 251.743 106.117 251.509C106.214 251.275 106.378 251.075 106.589 250.934C106.799 250.794 107.047 250.719 107.3 250.719C107.639 250.719 107.965 250.854 108.205 251.094C108.445 251.334 108.58 251.659 108.58 251.999Z" fill="#FAFAFA"/>
<path d="M117.65 245.27H113.69V257.17H117.65V245.27Z" fill="#F5F5F5"/>
<path d="M123.37 245.27H119.41V257.17H123.37V245.27Z" fill="#F5F5F5"/>
<path d="M129.08 245.27H125.12V257.17H129.08V245.27Z" fill="#F5F5F5"/>
<path d="M134.8 245.27H130.84V257.17H134.8V245.27Z" fill="#F5F5F5"/>
<path d="M140.51 245.27H136.55V257.17H140.51V245.27Z" fill="#F5F5F5"/>
<path d="M146.23 245.27H142.27V257.17H146.23V245.27Z" fill="#F5F5F5"/>
<path d="M151.94 245.27H147.98V257.17H151.94V245.27Z" fill="#F5F5F5"/>
<path d="M157.66 245.27H153.7V257.17H157.66V245.27Z" fill="#F5F5F5"/>
<path d="M163.37 245.27H159.41V257.17H163.37V245.27Z" fill="#F5F5F5"/>
<path d="M169.09 245.27H165.13V257.17H169.09V245.27Z" fill="#F5F5F5"/>
<path d="M169.7 273.172H97.8V293.412H169.7V273.172Z" fill="#CACDDF"/>
<path d="M103.84 275.711H99.8101V291.201H103.84V275.711Z" fill="#F5F5F5"/>
<path d="M107.3 280.251C108.007 280.251 108.58 279.678 108.58 278.971C108.58 278.264 108.007 277.691 107.3 277.691C106.593 277.691 106.02 278.264 106.02 278.971C106.02 279.678 106.593 280.251 107.3 280.251Z" fill="#FAFAFA"/>
<path d="M108.58 284.452C108.58 284.791 108.445 285.117 108.205 285.357C107.965 285.597 107.639 285.732 107.3 285.732C106.961 285.732 106.635 285.597 106.395 285.357C106.155 285.117 106.02 284.791 106.02 284.452C106.02 284.112 106.155 283.787 106.395 283.547C106.635 283.307 106.961 283.172 107.3 283.172C107.639 283.172 107.965 283.307 108.205 283.547C108.445 283.787 108.58 284.112 108.58 284.452Z" fill="#FAFAFA"/>
<path d="M117.65 277.691H113.69V289.591H117.65V277.691Z" fill="#F5F5F5"/>
<path d="M123.37 277.691H119.41V289.591H123.37V277.691Z" fill="#F5F5F5"/>
<path d="M129.08 277.691H125.12V289.591H129.08V277.691Z" fill="#F5F5F5"/>
<path d="M134.8 277.691H130.84V289.591H134.8V277.691Z" fill="#F5F5F5"/>
<path d="M140.51 277.691H136.55V289.591H140.51V277.691Z" fill="#F5F5F5"/>
<path d="M146.23 277.691H142.27V289.591H146.23V277.691Z" fill="#F5F5F5"/>
<path d="M151.94 277.691H147.98V289.591H151.94V277.691Z" fill="#F5F5F5"/>
<path d="M157.66 277.691H153.7V289.591H157.66V277.691Z" fill="#F5F5F5"/>
<path d="M163.37 277.691H159.41V289.591H163.37V277.691Z" fill="#F5F5F5"/>
<path d="M169.09 277.691H165.13V289.591H169.09V277.691Z" fill="#F5F5F5"/>
<path d="M142.27 78.6319C142.217 78.4262 142.19 78.2144 142.19 78.0019C142.19 77.5919 142.13 77.0019 142.11 76.2019C142.09 75.4019 142.11 74.4719 142.02 73.3619C141.981 72.1212 141.814 70.8879 141.52 69.6819C141.114 68.2484 140.465 66.8953 139.6 65.6819C138.626 64.2677 137.26 63.1693 135.67 62.5219C133.878 61.8637 131.997 61.4794 130.09 61.3819L123.9 60.8519C115.41 60.1119 107.72 59.6419 102.14 59.5319C99.3501 59.4719 97.1401 59.5319 95.5301 59.5319H93.7401C93.5304 59.5469 93.3198 59.5469 93.1101 59.5319C93.3123 59.4776 93.5208 59.4507 93.7301 59.4519L95.5301 59.3419C97.0901 59.2719 99.3501 59.2019 102.14 59.2119C107.74 59.2119 115.45 59.6419 123.94 60.3819L130.14 60.9319C132.097 61.0329 134.026 61.4342 135.86 62.1219C137.523 62.8219 138.947 63.989 139.96 65.4819C140.839 66.756 141.489 68.174 141.88 69.6719C142.161 70.909 142.306 72.1733 142.31 73.4419C142.31 74.5619 142.31 75.5119 142.31 76.2919C142.31 77.0719 142.31 77.6219 142.31 78.0919C142.313 78.2727 142.299 78.4534 142.27 78.6319Z" fill="#CACDDF"/>
<path d="M120.46 78.6301C120.416 78.4367 120.4 78.2381 120.41 78.0401C120.41 77.5901 120.41 77.0401 120.41 76.3401C120.41 75.6401 120.41 74.7101 120.32 73.6801C120.261 72.521 119.961 71.387 119.44 70.3501C118.661 69.1911 117.522 68.3198 116.2 67.8701C114.7 67.284 113.068 67.1181 111.48 67.3901C110.626 67.5303 109.802 67.8107 109.04 68.2201C108.255 68.6242 107.6 69.2411 107.15 70.0001C106.934 70.3848 106.82 70.8187 106.82 71.2601C106.82 71.7015 106.934 72.1354 107.15 72.5201C107.377 72.9179 107.683 73.2651 108.05 73.5402C108.416 73.8154 108.835 74.0127 109.28 74.1201C109.724 74.2194 110.185 74.2055 110.622 74.0797C111.059 73.9539 111.457 73.7202 111.78 73.4001C112.428 72.786 112.826 71.9533 112.896 71.0631C112.966 70.1729 112.704 69.2882 112.16 68.5801C111.67 67.879 111.018 67.3062 110.26 66.9101C109.517 66.565 108.717 66.3583 107.9 66.3001C107.09 66.1801 106.3 66.0701 105.53 65.9801C104 65.8101 102.53 65.7101 101.26 65.6601C98.65 65.5501 96.52 65.5901 95.05 65.5901H93.36C93.1641 65.614 92.966 65.614 92.77 65.5901C92.9632 65.5433 93.1613 65.5198 93.36 65.5201L95.05 65.4301C96.52 65.3701 98.64 65.2801 101.28 65.3401C102.59 65.3401 104.04 65.4501 105.58 65.6001C106.35 65.6801 107.15 65.7801 107.96 65.8901C108.37 65.9601 108.78 66.0101 109.21 66.0901C109.653 66.1718 110.081 66.3201 110.48 66.5301C111.309 66.9578 112.022 67.5786 112.56 68.3401C113.183 69.1425 113.485 70.1482 113.408 71.1612C113.33 72.1742 112.878 73.122 112.14 73.8201C111.753 74.2052 111.275 74.4861 110.751 74.6365C110.226 74.7869 109.672 74.8019 109.14 74.6801C108.623 74.5565 108.136 74.3275 107.711 74.0075C107.286 73.6875 106.932 73.2833 106.67 72.8201C106.413 72.3618 106.279 71.8454 106.279 71.3201C106.279 70.7949 106.413 70.2784 106.67 69.8201C107.163 68.965 107.892 68.2705 108.77 67.8201C109.584 67.3926 110.462 67.1021 111.37 66.9601C113.055 66.6765 114.787 66.8669 116.37 67.5101C117.772 68.0071 118.968 68.9572 119.77 70.2101C120.305 71.2972 120.595 72.4886 120.62 73.7001C120.665 74.5962 120.665 75.494 120.62 76.3901C120.62 77.0701 120.57 77.6301 120.55 78.0801C120.533 78.2653 120.503 78.449 120.46 78.6301Z" fill="#CACDDF"/>
<path d="M148.14 78.6306C148.074 78.4253 148.028 78.2144 148 78.0006C147.93 77.5606 147.8 76.9106 147.62 76.0806C147.134 73.7315 146.424 71.4343 145.5 69.2206C144.191 65.9228 142.031 63.0312 139.24 60.8406C137.558 59.6238 135.585 58.8719 133.52 58.6606C131.282 58.4164 129.032 58.2963 126.78 58.3006C117.49 58.1306 109.07 58.1606 102.97 57.9206C99.9701 57.8106 97.4601 57.6606 95.7601 57.5406L93.7601 57.3706C93.5313 57.3598 93.3038 57.3297 93.0801 57.2806C93.3057 57.2502 93.5344 57.2502 93.7601 57.2806L95.7601 57.3506C97.4701 57.4106 99.9301 57.5006 102.97 57.5606C109.06 57.7106 117.48 57.6206 126.78 57.7906C129.052 57.7842 131.323 57.9111 133.58 58.1706C135.729 58.3972 137.779 59.191 139.52 60.4706C141.072 61.6411 142.423 63.0562 143.52 64.6606C144.452 66.0521 145.236 67.5367 145.86 69.0906C146.771 71.3472 147.441 73.6935 147.86 76.0906C148.01 76.9306 148.1 77.5906 148.15 78.0306C148.16 78.2306 148.157 78.4311 148.14 78.6306Z" fill="#CACDDF"/>
<path d="M168.71 40.3008H98.79V50.4508H168.71V40.3008Z" fill="#CACDDF"/>
<path d="M152.24 45.3789H114.17V50.4589H152.24V45.3789Z" fill="#F5F5F5"/>
<path d="M443.74 37.0703H358.98V296.72H443.74V37.0703Z" fill="#E8EAF6"/>
<path d="M435.43 78.6289H363.53V98.8689H435.43V78.6289Z" fill="#CACDDF"/>
<path d="M369.57 81.1719H365.54V96.6619H369.57V81.1719Z" fill="#F5F5F5"/>
<path d="M373.03 85.7085C373.737 85.7085 374.31 85.1354 374.31 84.4284C374.31 83.7215 373.737 83.1484 373.03 83.1484C372.323 83.1484 371.75 83.7215 371.75 84.4284C371.75 85.1354 372.323 85.7085 373.03 85.7085Z" fill="#FAFAFA"/>
<path d="M373.03 91.1811C373.737 91.1811 374.31 90.608 374.31 89.9011C374.31 89.1942 373.737 88.6211 373.03 88.6211C372.323 88.6211 371.75 89.1942 371.75 89.9011C371.75 90.608 372.323 91.1811 373.03 91.1811Z" fill="#FAFAFA"/>
<path d="M383.38 83.1484H379.42V95.0484H383.38V83.1484Z" fill="#F5F5F5"/>
<path d="M389.1 83.1484H385.14V95.0484H389.1V83.1484Z" fill="#F5F5F5"/>
<path d="M394.81 83.1484H390.85V95.0484H394.81V83.1484Z" fill="#F5F5F5"/>
<path d="M400.53 83.1484H396.57V95.0484H400.53V83.1484Z" fill="#F5F5F5"/>
<path d="M406.24 83.1484H402.28V95.0484H406.24V83.1484Z" fill="#F5F5F5"/>
<path d="M411.96 83.1484H408V95.0484H411.96V83.1484Z" fill="#F5F5F5"/>
<path d="M417.67 83.1484H413.71V95.0484H417.67V83.1484Z" fill="#F5F5F5"/>
<path d="M423.39 83.1484H419.43V95.0484H423.39V83.1484Z" fill="#F5F5F5"/>
<path d="M429.1 83.1484H425.14V95.0484H429.1V83.1484Z" fill="#F5F5F5"/>
<path d="M434.82 83.1484H430.86V95.0484H434.82V83.1484Z" fill="#F5F5F5"/>
<path d="M435.43 111.051H363.53V131.291H435.43V111.051Z" fill="#CACDDF"/>
<path d="M369.57 113.602H365.54V129.092H369.57V113.602Z" fill="#F5F5F5"/>
<path d="M373.03 118.13C373.737 118.13 374.31 117.557 374.31 116.85C374.31 116.143 373.737 115.57 373.03 115.57C372.323 115.57 371.75 116.143 371.75 116.85C371.75 117.557 372.323 118.13 373.03 118.13Z" fill="#FAFAFA"/>
<path d="M373.03 123.611C373.737 123.611 374.31 123.038 374.31 122.331C374.31 121.624 373.737 121.051 373.03 121.051C372.323 121.051 371.75 121.624 371.75 122.331C371.75 123.038 372.323 123.611 373.03 123.611Z" fill="#FAFAFA"/>
<path d="M383.38 115.57H379.42V127.47H383.38V115.57Z" fill="#F5F5F5"/>
<path d="M389.1 115.57H385.14V127.47H389.1V115.57Z" fill="#F5F5F5"/>
<path d="M394.81 115.57H390.85V127.47H394.81V115.57Z" fill="#F5F5F5"/>
<path d="M400.53 115.57H396.57V127.47H400.53V115.57Z" fill="#F5F5F5"/>
<path d="M406.24 115.57H402.28V127.47H406.24V115.57Z" fill="#F5F5F5"/>
<path d="M411.96 115.57H408V127.47H411.96V115.57Z" fill="#F5F5F5"/>
<path d="M417.67 115.57H413.71V127.47H417.67V115.57Z" fill="#F5F5F5"/>
<path d="M423.39 115.57H419.43V127.47H423.39V115.57Z" fill="#F5F5F5"/>
<path d="M429.1 115.57H425.14V127.47H429.1V115.57Z" fill="#F5F5F5"/>
<path d="M434.82 115.57H430.86V127.47H434.82V115.57Z" fill="#F5F5F5"/>
<path d="M435.43 143.469H363.53V163.709H435.43V143.469Z" fill="#CACDDF"/>
<path d="M369.57 146.02H365.54V161.51H369.57V146.02Z" fill="#F5F5F5"/>
<path d="M373.03 150.56C373.737 150.56 374.31 149.987 374.31 149.28C374.31 148.573 373.737 148 373.03 148C372.323 148 371.75 148.573 371.75 149.28C371.75 149.987 372.323 150.56 373.03 150.56Z" fill="#FAFAFA"/>
<path d="M374.31 154.749C374.31 155.002 374.235 155.249 374.094 155.46C373.954 155.67 373.754 155.834 373.52 155.931C373.286 156.028 373.029 156.054 372.78 156.004C372.532 155.955 372.304 155.833 372.125 155.654C371.946 155.475 371.824 155.247 371.775 154.998C371.725 154.75 371.751 154.493 371.847 154.259C371.944 154.025 372.108 153.825 372.319 153.684C372.529 153.544 372.777 153.469 373.03 153.469C373.369 153.469 373.695 153.604 373.935 153.844C374.175 154.084 374.31 154.409 374.31 154.749Z" fill="#FAFAFA"/>
<path d="M383.38 148H379.42V159.9H383.38V148Z" fill="#F5F5F5"/>
<path d="M389.1 148H385.14V159.9H389.1V148Z" fill="#F5F5F5"/>
<path d="M394.81 148H390.85V159.9H394.81V148Z" fill="#F5F5F5"/>
<path d="M400.53 148H396.57V159.9H400.53V148Z" fill="#F5F5F5"/>
<path d="M406.24 148H402.28V159.9H406.24V148Z" fill="#F5F5F5"/>
<path d="M411.96 148H408V159.9H411.96V148Z" fill="#F5F5F5"/>
<path d="M417.67 148H413.71V159.9H417.67V148Z" fill="#F5F5F5"/>
<path d="M423.39 148H419.43V159.9H423.39V148Z" fill="#F5F5F5"/>
<path d="M429.1 148H425.14V159.9H429.1V148Z" fill="#F5F5F5"/>
<path d="M434.82 148H430.86V159.9H434.82V148Z" fill="#F5F5F5"/>
<path d="M435.43 175.898H363.53V196.138H435.43V175.898Z" fill="#CACDDF"/>
<path d="M369.57 178.441H365.54V193.931H369.57V178.441Z" fill="#F5F5F5"/>
<path d="M373.03 182.982C373.737 182.982 374.31 182.409 374.31 181.702C374.31 180.995 373.737 180.422 373.03 180.422C372.323 180.422 371.75 180.995 371.75 181.702C371.75 182.409 372.323 182.982 373.03 182.982Z" fill="#FAFAFA"/>
<path d="M374.31 187.178C374.31 187.518 374.175 187.843 373.935 188.084C373.695 188.324 373.369 188.458 373.03 188.458C372.691 188.458 372.365 188.324 372.125 188.084C371.885 187.843 371.75 187.518 371.75 187.178C371.75 186.839 371.885 186.513 372.125 186.273C372.365 186.033 372.691 185.898 373.03 185.898C373.369 185.898 373.695 186.033 373.935 186.273C374.175 186.513 374.31 186.839 374.31 187.178Z" fill="#FAFAFA"/>
<path d="M383.38 180.422H379.42V192.322H383.38V180.422Z" fill="#F5F5F5"/>
<path d="M389.1 180.422H385.14V192.322H389.1V180.422Z" fill="#F5F5F5"/>
<path d="M394.81 180.422H390.85V192.322H394.81V180.422Z" fill="#F5F5F5"/>
<path d="M400.53 180.422H396.57V192.322H400.53V180.422Z" fill="#F5F5F5"/>
<path d="M406.24 180.422H402.28V192.322H406.24V180.422Z" fill="#F5F5F5"/>
<path d="M411.96 180.422H408V192.322H411.96V180.422Z" fill="#F5F5F5"/>
<path d="M417.67 180.422H413.71V192.322H417.67V180.422Z" fill="#F5F5F5"/>
<path d="M423.39 180.422H419.43V192.322H423.39V180.422Z" fill="#F5F5F5"/>
<path d="M429.1 180.422H425.14V192.322H429.1V180.422Z" fill="#F5F5F5"/>
<path d="M434.82 180.422H430.86V192.322H434.82V180.422Z" fill="#F5F5F5"/>
<path d="M435.43 208.32H363.53V228.56H435.43V208.32Z" fill="#CACDDF"/>
<path d="M369.57 210.871H365.54V226.361H369.57V210.871Z" fill="#F5F5F5"/>
<path d="M373.03 215.412C373.737 215.412 374.31 214.838 374.31 214.132C374.31 213.425 373.737 212.852 373.03 212.852C372.323 212.852 371.75 213.425 371.75 214.132C371.75 214.838 372.323 215.412 373.03 215.412Z" fill="#FAFAFA"/>
<path d="M374.31 219.6C374.31 219.853 374.235 220.101 374.094 220.311C373.954 220.522 373.754 220.686 373.52 220.783C373.286 220.88 373.029 220.905 372.78 220.856C372.532 220.806 372.304 220.684 372.125 220.505C371.946 220.326 371.824 220.098 371.775 219.85C371.725 219.602 371.751 219.344 371.847 219.11C371.944 218.877 372.108 218.677 372.319 218.536C372.529 218.395 372.777 218.32 373.03 218.32C373.369 218.32 373.695 218.455 373.935 218.695C374.175 218.935 374.31 219.261 374.31 219.6Z" fill="#FAFAFA"/>
<path d="M383.38 212.852H379.42V224.752H383.38V212.852Z" fill="#F5F5F5"/>
<path d="M389.1 212.852H385.14V224.752H389.1V212.852Z" fill="#F5F5F5"/>
<path d="M394.81 212.852H390.85V224.752H394.81V212.852Z" fill="#F5F5F5"/>
<path d="M400.53 212.852H396.57V224.752H400.53V212.852Z" fill="#F5F5F5"/>
<path d="M406.24 212.852H402.28V224.752H406.24V212.852Z" fill="#F5F5F5"/>
<path d="M411.96 212.852H408V224.752H411.96V212.852Z" fill="#F5F5F5"/>
<path d="M417.67 212.852H413.71V224.752H417.67V212.852Z" fill="#F5F5F5"/>
<path d="M423.39 212.852H419.43V224.752H423.39V212.852Z" fill="#F5F5F5"/>
<path d="M429.1 212.852H425.14V224.752H429.1V212.852Z" fill="#F5F5F5"/>
<path d="M434.82 212.852H430.86V224.752H434.82V212.852Z" fill="#F5F5F5"/>
<path d="M435.43 240.742H363.53V260.982H435.43V240.742Z" fill="#CACDDF"/>
<path d="M369.57 243.289H365.54V258.779H369.57V243.289Z" fill="#F5F5F5"/>
<path d="M373.03 247.83C373.737 247.83 374.31 247.256 374.31 246.55C374.31 245.843 373.737 245.27 373.03 245.27C372.323 245.27 371.75 245.843 371.75 246.55C371.75 247.256 372.323 247.83 373.03 247.83Z" fill="#FAFAFA"/>
<path d="M374.31 251.999C374.31 252.252 374.235 252.499 374.094 252.71C373.954 252.92 373.754 253.084 373.52 253.181C373.286 253.278 373.029 253.304 372.78 253.254C372.532 253.205 372.304 253.083 372.125 252.904C371.946 252.725 371.824 252.497 371.775 252.248C371.725 252 371.751 251.743 371.847 251.509C371.944 251.275 372.108 251.075 372.319 250.934C372.529 250.794 372.777 250.719 373.03 250.719C373.369 250.719 373.695 250.854 373.935 251.094C374.175 251.334 374.31 251.659 374.31 251.999Z" fill="#FAFAFA"/>
<path d="M383.38 245.27H379.42V257.17H383.38V245.27Z" fill="#F5F5F5"/>
<path d="M389.1 245.27H385.14V257.17H389.1V245.27Z" fill="#F5F5F5"/>
<path d="M394.81 245.27H390.85V257.17H394.81V245.27Z" fill="#F5F5F5"/>
<path d="M400.53 245.27H396.57V257.17H400.53V245.27Z" fill="#F5F5F5"/>
<path d="M406.24 245.27H402.28V257.17H406.24V245.27Z" fill="#F5F5F5"/>
<path d="M411.96 245.27H408V257.17H411.96V245.27Z" fill="#F5F5F5"/>
<path d="M417.67 245.27H413.71V257.17H417.67V245.27Z" fill="#F5F5F5"/>
<path d="M423.39 245.27H419.43V257.17H423.39V245.27Z" fill="#F5F5F5"/>
<path d="M429.1 245.27H425.14V257.17H429.1V245.27Z" fill="#F5F5F5"/>
<path d="M434.82 245.27H430.86V257.17H434.82V245.27Z" fill="#F5F5F5"/>
<path d="M435.43 273.172H363.53V293.412H435.43V273.172Z" fill="#CACDDF"/>
<path d="M369.57 275.711H365.54V291.201H369.57V275.711Z" fill="#F5F5F5"/>
<path d="M373.03 280.251C373.737 280.251 374.31 279.678 374.31 278.971C374.31 278.264 373.737 277.691 373.03 277.691C372.323 277.691 371.75 278.264 371.75 278.971C371.75 279.678 372.323 280.251 373.03 280.251Z" fill="#FAFAFA"/>
<path d="M374.31 284.452C374.31 284.791 374.175 285.117 373.935 285.357C373.695 285.597 373.369 285.732 373.03 285.732C372.691 285.732 372.365 285.597 372.125 285.357C371.885 285.117 371.75 284.791 371.75 284.452C371.75 284.112 371.885 283.787 372.125 283.547C372.365 283.307 372.691 283.172 373.03 283.172C373.369 283.172 373.695 283.307 373.935 283.547C374.175 283.787 374.31 284.112 374.31 284.452Z" fill="#FAFAFA"/>
<path d="M383.38 277.691H379.42V289.591H383.38V277.691Z" fill="#F5F5F5"/>
<path d="M389.1 277.691H385.14V289.591H389.1V277.691Z" fill="#F5F5F5"/>
<path d="M394.81 277.691H390.85V289.591H394.81V277.691Z" fill="#F5F5F5"/>
<path d="M400.53 277.691H396.57V289.591H400.53V277.691Z" fill="#F5F5F5"/>
<path d="M406.24 277.691H402.28V289.591H406.24V277.691Z" fill="#F5F5F5"/>
<path d="M411.96 277.691H408V289.591H411.96V277.691Z" fill="#F5F5F5"/>
<path d="M417.67 277.691H413.71V289.591H417.67V277.691Z" fill="#F5F5F5"/>
<path d="M423.39 277.691H419.43V289.591H423.39V277.691Z" fill="#F5F5F5"/>
<path d="M429.1 277.691H425.14V289.591H429.1V277.691Z" fill="#F5F5F5"/>
<path d="M434.82 277.691H430.86V289.591H434.82V277.691Z" fill="#F5F5F5"/>
<path d="M408 78.6319C407.947 78.4262 407.92 78.2144 407.92 78.0019C407.92 77.5919 407.86 77.0019 407.84 76.2019C407.82 75.4019 407.84 74.4719 407.75 73.3619C407.711 72.1212 407.544 70.8879 407.25 69.6819C406.844 68.2484 406.195 66.8953 405.33 65.6819C404.354 64.2701 402.989 63.1723 401.4 62.5219C399.608 61.8637 397.727 61.4794 395.82 61.3819L389.63 60.8519C381.14 60.1119 373.45 59.6419 367.87 59.5319C365.08 59.4719 362.82 59.5319 361.26 59.5319H359.47C359.26 59.5474 359.05 59.5474 358.84 59.5319C359.042 59.4776 359.251 59.4507 359.46 59.4519L361.26 59.3419C362.82 59.2719 365.08 59.2019 367.87 59.2119C373.46 59.2119 381.18 59.6419 389.67 60.3819L395.87 60.9319C397.826 61.0329 399.756 61.4342 401.59 62.1219C403.253 62.8219 404.677 63.989 405.69 65.4819C406.569 66.756 407.219 68.174 407.61 69.6719C407.891 70.909 408.036 72.1733 408.04 73.4419C408.04 74.5619 408.04 75.5119 408.04 76.2919C408.04 77.0719 408.04 77.6219 408.04 78.0919C408.043 78.2727 408.029 78.4534 408 78.6319Z" fill="#CACDDF"/>
<path d="M386.18 78.6301C386.163 78.4338 386.163 78.2364 386.18 78.0401C386.18 77.5901 386.18 77.0401 386.18 76.3401C386.18 75.6401 386.18 74.7101 386.09 73.6801C386.031 72.521 385.731 71.387 385.21 70.3501C384.431 69.1911 383.292 68.3198 381.97 67.8701C380.466 67.2837 378.831 67.1177 377.24 67.3901C376.39 67.5319 375.569 67.8123 374.81 68.2201C374.023 68.621 373.367 69.2387 372.92 70.0001C372.704 70.3848 372.59 70.8187 372.59 71.2601C372.59 71.7015 372.704 72.1354 372.92 72.5201C373.147 72.9179 373.453 73.2651 373.82 73.5402C374.186 73.8154 374.605 74.0127 375.05 74.1201C375.494 74.2194 375.955 74.2055 376.392 74.0797C376.829 73.9539 377.227 73.7202 377.55 73.4001C378.198 72.786 378.596 71.9533 378.666 71.0631C378.736 70.1729 378.474 69.2882 377.93 68.5801C377.44 67.879 376.788 67.3062 376.03 66.9101C375.287 66.565 374.487 66.3583 373.67 66.3001C372.85 66.1801 372.07 66.0701 371.3 65.9801C369.77 65.8101 368.3 65.7101 367.03 65.6601C364.42 65.5501 362.29 65.5901 360.82 65.5901H359.13C358.934 65.614 358.736 65.614 358.54 65.5901C358.733 65.5433 358.931 65.5198 359.13 65.5201L360.82 65.4301C362.29 65.3701 364.41 65.2801 367.05 65.3401C368.36 65.3401 369.81 65.4501 371.35 65.6001C372.12 65.6801 372.91 65.7801 373.73 65.8901C374.14 65.9601 374.55 66.0101 374.98 66.0901C375.423 66.1718 375.851 66.3201 376.25 66.5301C377.079 66.9578 377.792 67.5786 378.33 68.3401C378.939 69.1301 379.241 70.1143 379.18 71.1101C379.104 72.1387 378.652 73.1034 377.91 73.8201C377.523 74.2052 377.045 74.4861 376.521 74.6365C375.996 74.7869 375.442 74.8019 374.91 74.6801C374.392 74.555 373.905 74.3255 373.478 74.0057C373.052 73.6859 372.695 73.2825 372.43 72.8201C372.176 72.3609 372.043 71.8448 372.043 71.3201C372.043 70.7954 372.176 70.2793 372.43 69.8201C372.923 68.965 373.652 68.2705 374.53 67.8201C375.341 67.3942 376.216 67.1037 377.12 66.9601C378.806 66.6781 380.536 66.8684 382.12 67.5101C383.522 68.0071 384.718 68.9572 385.52 70.2101C386.055 71.2972 386.345 72.4886 386.37 73.7001C386.415 74.5962 386.415 75.494 386.37 76.3901C386.37 77.0701 386.32 77.6301 386.3 78.0801C386.282 78.2676 386.242 78.4522 386.18 78.6301Z" fill="#CACDDF"/>
<path d="M413.87 78.6319C413.795 78.4142 413.742 78.1899 413.71 77.9619C413.63 77.5219 413.51 76.8719 413.33 76.0419C412.84 73.6927 412.127 71.3956 411.2 69.1819C409.911 65.8896 407.771 62.9981 405 60.8019C403.318 59.5851 401.345 58.8332 399.28 58.6219C397.042 58.3777 394.792 58.2576 392.54 58.2619C383.25 58.0919 374.82 58.1219 368.73 57.8819C365.73 57.7719 363.22 57.6219 361.52 57.5019L359.52 57.3319C359.291 57.3211 359.064 57.291 358.84 57.2419C359.066 57.211 359.294 57.211 359.52 57.2419L361.52 57.3119C363.23 57.3719 365.69 57.4619 368.73 57.5219C374.82 57.6719 383.24 57.5819 392.54 57.7519C394.812 57.7455 397.083 57.8724 399.34 58.1319C401.489 58.3585 403.539 59.1523 405.28 60.4319C406.832 61.6024 408.183 63.0175 409.28 64.6219C410.212 66.0133 410.996 67.498 411.62 69.0519C412.531 71.3085 413.201 73.6548 413.62 76.0519C413.77 76.8919 413.86 77.5519 413.91 77.9919C413.912 78.2059 413.899 78.4198 413.87 78.6319Z" fill="#CACDDF"/>
<path d="M434.44 40.3008H364.52V50.4508H434.44V40.3008Z" fill="#CACDDF"/>
<path d="M417.97 45.3789H379.9V50.4589H417.97V45.3789Z" fill="#F5F5F5"/>
<path d="M525 296.401C525 296.541 407.581 296.661 262.757 296.661C117.934 296.661 0.48999 296.541 0.48999 296.401C0.48999 296.261 117.893 296.141 262.757 296.141C407.622 296.141 525 296.251 525 296.401Z" fill="#263238"/>
<path d="M284.71 0.21875H188.1V296.169H284.71V0.21875Z" fill="#E8EAF6"/>
<path d="M360.94 0.21875H284.58V295.219H360.94V0.21875Z" fill="#CACDDF"/>
<path d="M275.4 147.59H193.45V170.66H275.4V147.59Z" fill="#263238"/>
<path d="M275.4 47.5781H193.45V70.6481H275.4V47.5781Z" fill="#263238"/>
<path d="M200.33 50.4805H195.74V68.1405H200.33V50.4805Z" fill="#455A64"/>
<path d="M205.73 54.1983C205.73 54.487 205.644 54.7693 205.484 55.0094C205.324 55.2495 205.096 55.4366 204.829 55.5471C204.562 55.6576 204.268 55.6866 203.985 55.6302C203.702 55.5739 203.442 55.4348 203.238 55.2307C203.033 55.0265 202.894 54.7663 202.838 54.4831C202.782 54.1999 202.811 53.9063 202.921 53.6396C203.032 53.3728 203.219 53.1448 203.459 52.9843C203.699 52.8239 203.981 52.7383 204.27 52.7383C204.657 52.7383 205.029 52.8921 205.302 53.1659C205.576 53.4397 205.73 53.8111 205.73 54.1983Z" fill="white"/>
<path d="M205.73 60.4405C205.73 60.7292 205.644 61.0115 205.484 61.2516C205.324 61.4917 205.096 61.6788 204.829 61.7893C204.562 61.8998 204.268 61.9288 203.985 61.8724C203.702 61.8161 203.442 61.677 203.238 61.4729C203.033 61.2687 202.894 61.0085 202.838 60.7253C202.782 60.4421 202.811 60.1485 202.921 59.8818C203.032 59.615 203.219 59.387 203.459 59.2265C203.699 59.0661 203.981 58.9805 204.27 58.9805C204.462 58.9805 204.652 59.0182 204.829 59.0916C205.006 59.165 205.167 59.2725 205.302 59.4081C205.438 59.5437 205.546 59.7046 205.619 59.8818C205.692 60.0589 205.73 60.2487 205.73 60.4405Z" fill="white"/>
<path d="M216.07 52.7383H211.56V66.2983H216.07V52.7383Z" fill="#455A64"/>
<path d="M222.59 52.7383H218.08V66.2983H222.59V52.7383Z" fill="#455A64"/>
<path d="M229.1 52.7383H224.59V66.2983H229.1V52.7383Z" fill="#455A64"/>
<path d="M235.61 52.7383H231.1V66.2983H235.61V52.7383Z" fill="#455A64"/>
<path d="M242.13 52.7383H237.62V66.2983H242.13V52.7383Z" fill="#455A64"/>
<path d="M248.64 52.7383H244.13V66.2983H248.64V52.7383Z" fill="#455A64"/>
<path d="M255.16 52.7383H250.65V66.2983H255.16V52.7383Z" fill="#455A64"/>
<path d="M261.67 52.7383H257.16V66.2983H261.67V52.7383Z" fill="#455A64"/>
<path d="M268.18 52.7383H263.67V66.2983H268.18V52.7383Z" fill="#455A64"/>
<path d="M274.7 52.7383H270.19V66.2983H274.7V52.7383Z" fill="#455A64"/>
<path d="M275.4 80.7305H193.45V103.8H275.4V80.7305Z" fill="#263238"/>
<path d="M200.33 83.6289H195.74V101.289H200.33V83.6289Z" fill="#455A64"/>
<path d="M205.73 87.3406C205.732 87.6298 205.648 87.9131 205.489 88.1545C205.33 88.3959 205.102 88.5846 204.836 88.6966C204.569 88.8086 204.275 88.839 203.991 88.7838C203.707 88.7286 203.446 88.5903 203.241 88.3865C203.036 88.1828 202.896 87.9226 202.839 87.6392C202.782 87.3557 202.81 87.0616 202.92 86.7942C203.03 86.5269 203.218 86.2983 203.458 86.1374C203.698 85.9765 203.981 85.8906 204.27 85.8906C204.655 85.8906 205.025 86.0431 205.299 86.3147C205.572 86.5864 205.727 86.9551 205.73 87.3406Z" fill="white"/>
<path d="M205.73 93.5772C205.73 93.866 205.644 94.1482 205.484 94.3883C205.324 94.6284 205.096 94.8156 204.829 94.9261C204.562 95.0366 204.268 95.0655 203.985 95.0091C203.702 94.9528 203.442 94.8138 203.238 94.6096C203.033 94.4054 202.894 94.1452 202.838 93.862C202.782 93.5788 202.811 93.2853 202.921 93.0185C203.032 92.7517 203.219 92.5237 203.459 92.3633C203.699 92.2028 203.981 92.1172 204.27 92.1172C204.657 92.1172 205.029 92.271 205.302 92.5448C205.576 92.8186 205.73 93.19 205.73 93.5772Z" fill="white"/>
<path d="M216.07 85.8906H211.56V99.4506H216.07V85.8906Z" fill="#455A64"/>
<path d="M222.59 85.8906H218.08V99.4506H222.59V85.8906Z" fill="#455A64"/>
<path d="M229.1 85.8906H224.59V99.4506H229.1V85.8906Z" fill="#455A64"/>
<path d="M235.61 85.8906H231.1V99.4506H235.61V85.8906Z" fill="#455A64"/>
<path d="M242.13 85.8906H237.62V99.4506H242.13V85.8906Z" fill="#455A64"/>
<path d="M248.64 85.8906H244.13V99.4506H248.64V85.8906Z" fill="#455A64"/>
<path d="M255.16 85.8906H250.65V99.4506H255.16V85.8906Z" fill="#455A64"/>
<path d="M261.67 85.8906H257.16V99.4506H261.67V85.8906Z" fill="#455A64"/>
<path d="M268.18 85.8906H263.67V99.4506H268.18V85.8906Z" fill="#455A64"/>
<path d="M274.7 85.8906H270.19V99.4506H274.7V85.8906Z" fill="#455A64"/>
<path d="M275.4 114.141H193.45V137.211H275.4V114.141Z" fill="#263238"/>
<path d="M200.33 117.039H195.74V134.699H200.33V117.039Z" fill="#455A64"/>
<path d="M205.73 120.747C205.732 121.036 205.648 121.319 205.489 121.561C205.33 121.802 205.102 121.991 204.836 122.103C204.569 122.215 204.275 122.245 203.991 122.19C203.707 122.135 203.446 121.997 203.241 121.793C203.036 121.589 202.896 121.329 202.839 121.045C202.782 120.762 202.81 120.468 202.92 120.2C203.03 119.933 203.218 119.705 203.458 119.544C203.698 119.383 203.981 119.297 204.27 119.297C204.655 119.297 205.025 119.449 205.299 119.721C205.572 119.993 205.727 120.361 205.73 120.747Z" fill="white"/>
<path d="M205.73 126.997C205.732 127.286 205.648 127.569 205.489 127.811C205.33 128.052 205.102 128.241 204.836 128.353C204.569 128.465 204.275 128.495 203.991 128.44C203.707 128.385 203.446 128.247 203.241 128.043C203.036 127.839 202.896 127.579 202.839 127.295C202.782 127.012 202.81 126.718 202.92 126.45C203.03 126.183 203.218 125.955 203.458 125.794C203.698 125.633 203.981 125.547 204.27 125.547C204.655 125.547 205.025 125.699 205.299 125.971C205.572 126.243 205.727 126.611 205.73 126.997Z" fill="white"/>
<path d="M216.07 119.297H211.56V132.857H216.07V119.297Z" fill="#455A64"/>
<path d="M222.59 119.297H218.08V132.857H222.59V119.297Z" fill="#455A64"/>
<path d="M229.1 119.297H224.59V132.857H229.1V119.297Z" fill="#455A64"/>
<path d="M235.61 119.297H231.1V132.857H235.61V119.297Z" fill="#455A64"/>
<path d="M242.13 119.297H237.62V132.857H242.13V119.297Z" fill="#455A64"/>
<path d="M248.64 119.297H244.13V132.857H248.64V119.297Z" fill="#455A64"/>
<path d="M255.16 119.297H250.65V132.857H255.16V119.297Z" fill="#455A64"/>
<path d="M261.67 119.297H257.16V132.857H261.67V119.297Z" fill="#455A64"/>
<path d="M268.18 119.297H263.67V132.857H268.18V119.297Z" fill="#455A64"/>
<path d="M274.7 119.297H270.19V132.857H274.7V119.297Z" fill="#455A64"/>
<path d="M275.4 186.68H193.45V209.75H275.4V186.68Z" fill="#263238"/>
<path d="M200.33 189.578H195.74V207.238H200.33V189.578Z" fill="#455A64"/>
<path d="M205.73 193.3C205.73 193.589 205.644 193.871 205.484 194.111C205.324 194.351 205.096 194.538 204.829 194.649C204.562 194.759 204.268 194.788 203.985 194.732C203.702 194.675 203.442 194.536 203.238 194.332C203.033 194.128 202.894 193.868 202.838 193.585C202.782 193.302 202.811 193.008 202.921 192.741C203.032 192.474 203.219 192.246 203.459 192.086C203.699 191.926 203.981 191.84 204.27 191.84C204.462 191.839 204.653 191.875 204.83 191.948C205.008 192.021 205.17 192.129 205.305 192.265C205.441 192.4 205.549 192.562 205.622 192.74C205.695 192.917 205.731 193.108 205.73 193.3Z" fill="white"/>
<path d="M205.73 199.538C205.73 199.827 205.644 200.109 205.484 200.349C205.324 200.589 205.096 200.777 204.829 200.887C204.562 200.998 204.268 201.026 203.985 200.97C203.702 200.914 203.442 200.775 203.238 200.571C203.033 200.366 202.894 200.106 202.838 199.823C202.782 199.54 202.811 199.246 202.921 198.979C203.032 198.713 203.219 198.485 203.459 198.324C203.699 198.164 203.981 198.078 204.27 198.078C204.462 198.077 204.653 198.114 204.83 198.187C205.008 198.259 205.17 198.367 205.305 198.503C205.441 198.639 205.549 198.8 205.622 198.978C205.695 199.156 205.731 199.346 205.73 199.538Z" fill="white"/>
<path d="M216.07 191.84H211.56V205.4H216.07V191.84Z" fill="#455A64"/>
<path d="M222.59 191.84H218.08V205.4H222.59V191.84Z" fill="#455A64"/>
<path d="M229.1 191.84H224.59V205.4H229.1V191.84Z" fill="#455A64"/>
<path d="M235.61 191.84H231.1V205.4H235.61V191.84Z" fill="#455A64"/>
<path d="M242.13 191.84H237.62V205.4H242.13V191.84Z" fill="#455A64"/>
<path d="M248.64 191.84H244.13V205.4H248.64V191.84Z" fill="#455A64"/>
<path d="M255.16 191.84H250.65V205.4H255.16V191.84Z" fill="#455A64"/>
<path d="M261.67 191.84H257.16V205.4H261.67V191.84Z" fill="#455A64"/>
<path d="M268.18 191.84H263.67V205.4H268.18V191.84Z" fill="#455A64"/>
<path d="M274.7 191.84H270.19V205.4H274.7V191.84Z" fill="#455A64"/>
<path d="M275.4 259.219H193.45V282.289H275.4V259.219Z" fill="#263238"/>
<path d="M200.33 262.117H195.74V279.777H200.33V262.117Z" fill="#455A64"/>
<path d="M205.73 265.839C205.73 266.128 205.644 266.41 205.484 266.65C205.324 266.89 205.096 267.077 204.829 267.188C204.562 267.298 204.268 267.327 203.985 267.271C203.702 267.215 203.442 267.075 203.238 266.871C203.033 266.667 202.894 266.407 202.838 266.124C202.782 265.841 202.811 265.547 202.921 265.28C203.032 265.013 203.219 264.785 203.459 264.625C203.699 264.465 203.981 264.379 204.27 264.379C204.657 264.379 205.029 264.533 205.302 264.807C205.576 265.08 205.73 265.452 205.73 265.839Z" fill="white"/>
<path d="M205.73 272.077C205.73 272.366 205.644 272.648 205.484 272.888C205.324 273.128 205.096 273.316 204.829 273.426C204.562 273.537 204.268 273.565 203.985 273.509C203.702 273.453 203.442 273.314 203.238 273.11C203.033 272.905 202.894 272.645 202.838 272.362C202.782 272.079 202.811 271.785 202.921 271.518C203.032 271.252 203.219 271.024 203.459 270.863C203.699 270.703 203.981 270.617 204.27 270.617C204.657 270.617 205.029 270.771 205.302 271.045C205.576 271.319 205.73 271.69 205.73 272.077Z" fill="white"/>
<path d="M216.07 264.379H211.56V277.939H216.07V264.379Z" fill="#455A64"/>
<path d="M222.59 264.379H218.08V277.939H222.59V264.379Z" fill="#455A64"/>
<path d="M229.1 264.379H224.59V277.939H229.1V264.379Z" fill="#455A64"/>
<path d="M235.61 264.379H231.1V277.939H235.61V264.379Z" fill="#455A64"/>
<path d="M242.13 264.379H237.62V277.939H242.13V264.379Z" fill="#455A64"/>
<path d="M248.64 264.379H244.13V277.939H248.64V264.379Z" fill="#455A64"/>
<path d="M255.16 264.379H250.65V277.939H255.16V264.379Z" fill="#455A64"/>
<path d="M261.67 264.379H257.16V277.939H261.67V264.379Z" fill="#455A64"/>
<path d="M268.18 264.379H263.67V277.939H268.18V264.379Z" fill="#455A64"/>
<path d="M274.7 264.379H270.19V277.939H274.7V264.379Z" fill="#455A64"/>
<path d="M275.4 222.98H193.45V246.05H275.4V222.98Z" fill="#263238"/>
<path d="M200.33 225.879H195.74V243.539H200.33V225.879Z" fill="#455A64"/>
<path d="M205.73 229.601C205.73 229.889 205.644 230.172 205.484 230.412C205.324 230.652 205.096 230.839 204.829 230.949C204.562 231.06 204.268 231.089 203.985 231.033C203.702 230.976 203.442 230.837 203.238 230.633C203.033 230.429 202.894 230.169 202.838 229.885C202.782 229.602 202.811 229.309 202.921 229.042C203.032 228.775 203.219 228.547 203.459 228.387C203.699 228.226 203.981 228.141 204.27 228.141C204.657 228.141 205.029 228.294 205.302 228.568C205.576 228.842 205.73 229.213 205.73 229.601Z" fill="white"/>
<path d="M205.73 235.839C205.73 236.128 205.644 236.41 205.484 236.65C205.324 236.89 205.096 237.077 204.829 237.188C204.562 237.298 204.268 237.327 203.985 237.271C203.702 237.215 203.442 237.075 203.238 236.871C203.033 236.667 202.894 236.407 202.838 236.124C202.782 235.841 202.811 235.547 202.921 235.28C203.032 235.013 203.219 234.785 203.459 234.625C203.699 234.465 203.981 234.379 204.27 234.379C204.657 234.379 205.029 234.533 205.302 234.807C205.576 235.08 205.73 235.452 205.73 235.839Z" fill="white"/>
<path d="M216.07 228.141H211.56V241.701H216.07V228.141Z" fill="#455A64"/>
<path d="M222.59 228.141H218.08V241.701H222.59V228.141Z" fill="#455A64"/>
<path d="M229.1 228.141H224.59V241.701H229.1V228.141Z" fill="#455A64"/>
<path d="M235.61 228.141H231.1V241.701H235.61V228.141Z" fill="#455A64"/>
<path d="M242.13 228.141H237.62V241.701H242.13V228.141Z" fill="#455A64"/>
<path d="M248.64 228.141H244.13V241.701H248.64V228.141Z" fill="#455A64"/>
<path d="M255.16 228.141H250.65V241.701H255.16V228.141Z" fill="#455A64"/>
<path d="M261.67 228.141H257.16V241.701H261.67V228.141Z" fill="#455A64"/>
<path d="M268.18 228.141H263.67V241.701H268.18V228.141Z" fill="#455A64"/>
<path d="M274.7 228.141H270.19V241.701H274.7V228.141Z" fill="#455A64"/>
<path d="M244.13 47.5772C244.082 47.3434 244.056 47.1058 244.05 46.8672C244.05 46.3972 243.99 45.7072 243.97 44.8172C243.95 43.9272 243.97 42.8172 243.87 41.5772C243.829 40.1583 243.642 38.7474 243.31 37.3672C242.849 35.7167 242.108 34.1575 241.12 32.7572C240 31.1468 238.442 29.8907 236.63 29.1372C234.583 28.391 232.436 27.9562 230.26 27.8472L223.2 27.2372C213.53 26.3972 204.75 25.8572 198.4 25.7472C195.22 25.6772 192.64 25.6972 190.87 25.7472H188.82C188.581 25.7754 188.339 25.7754 188.1 25.7472C188.333 25.6938 188.571 25.6669 188.81 25.6672L190.86 25.5472C192.64 25.4772 195.22 25.3972 198.4 25.4172C204.77 25.4172 213.57 25.9172 223.24 26.7572L230.31 27.3772C232.533 27.4969 234.725 27.9555 236.81 28.7372C238.699 29.5307 240.317 30.854 241.47 32.5472C242.475 33.9976 243.219 35.6116 243.67 37.3172C243.984 38.726 244.148 40.1639 244.16 41.6072C244.16 42.8772 244.16 43.9672 244.16 44.8572C244.16 45.7472 244.16 46.3872 244.16 46.9072C244.17 47.131 244.16 47.3552 244.13 47.5772Z" fill="#263238"/>
<path d="M219.27 47.5778C219.249 47.355 219.249 47.1307 219.27 46.9078V44.9778C219.27 44.1478 219.27 43.1178 219.18 41.9778C219.118 40.655 218.777 39.3601 218.18 38.1778C217.29 36.8498 215.991 35.849 214.48 35.3278C212.763 34.6577 210.897 34.4676 209.08 34.7778C208.105 34.9429 207.163 35.2636 206.29 35.7278C205.385 36.1887 204.632 36.9004 204.12 37.7778C203.869 38.2182 203.737 38.7161 203.737 39.2229C203.737 39.7296 203.869 40.2275 204.12 40.6678C204.381 41.1285 204.734 41.5304 205.158 41.8487C205.581 42.1669 206.065 42.3947 206.58 42.5178C207.091 42.6314 207.623 42.615 208.126 42.47C208.629 42.325 209.088 42.0561 209.46 41.6878C210.206 40.9596 210.664 39.9867 210.75 38.9478C210.811 37.9412 210.506 36.9465 209.89 36.1478C209.331 35.3434 208.587 34.6849 207.72 34.2278C206.864 33.8421 205.947 33.6086 205.01 33.5378C204.077 33.3978 203.177 33.2778 202.31 33.1778C200.57 32.9778 198.94 32.8678 197.45 32.8078C194.45 32.6978 192.04 32.7379 190.36 32.7379H188.44C188.214 32.7572 187.986 32.7572 187.76 32.7379C187.98 32.6912 188.205 32.6678 188.43 32.6678L190.36 32.5679C192.03 32.5079 194.46 32.3978 197.46 32.4678C198.96 32.4678 200.6 32.5978 202.36 32.7778C203.24 32.8678 204.14 32.9778 205.08 33.1078C205.54 33.1878 206.01 33.2478 206.5 33.3378C207.002 33.432 207.488 33.6005 207.94 33.8378C208.871 34.3091 209.676 34.9946 210.29 35.8378C210.997 36.7225 211.353 37.837 211.29 38.9678C211.208 40.1375 210.695 41.2351 209.85 42.0478C209.419 42.4808 208.887 42.799 208.302 42.9737C207.717 43.1484 207.098 43.1739 206.5 43.0478C205.916 42.9073 205.367 42.6484 204.887 42.2872C204.407 41.926 204.007 41.4701 203.71 40.9478C203.417 40.4309 203.263 39.8469 203.263 39.2529C203.263 38.6588 203.417 38.0748 203.71 37.5578C204.27 36.5941 205.096 35.8127 206.09 35.3078C207.013 34.8187 208.009 34.4811 209.04 34.3078C210.938 33.9975 212.885 34.2118 214.67 34.9278C216.267 35.4903 217.629 36.5711 218.54 37.9978C219.161 39.2425 219.502 40.6076 219.54 41.9978C219.6 43.1978 219.54 44.2278 219.54 45.0578C219.54 45.8878 219.54 46.4979 219.47 46.9879C219.424 47.191 219.357 47.3888 219.27 47.5778Z" fill="#263238"/>
<path d="M250.82 47.5794C250.743 47.3317 250.69 47.0772 250.66 46.8195C250.57 46.3195 250.43 45.5794 250.23 44.6294C249.672 41.9522 248.862 39.3339 247.81 36.8094C246.33 33.0406 243.868 29.7364 240.68 27.2394C238.759 25.8452 236.502 24.986 234.14 24.7494C231.59 24.4647 229.026 24.3244 226.46 24.3294C215.87 24.1294 206.27 24.1794 199.32 23.9094C195.85 23.7894 193.04 23.6194 191.11 23.4894L188.88 23.2994C188.618 23.2889 188.357 23.2555 188.1 23.1994C188.359 23.1731 188.621 23.1731 188.88 23.1994L191.12 23.2794C193.06 23.3594 195.86 23.4694 199.33 23.5394C206.27 23.7094 215.86 23.6094 226.47 23.8094C229.06 23.8045 231.647 23.9481 234.22 24.2394C236.66 24.5028 238.988 25.4029 240.97 26.8494C242.718 28.1884 244.241 29.7988 245.48 31.6194C246.54 33.1898 247.434 34.8654 248.15 36.6194C249.182 39.1726 249.943 41.8272 250.42 44.5394C250.6 45.5394 250.7 46.2394 250.76 46.7494C250.81 47.0231 250.83 47.3014 250.82 47.5794Z" fill="#263238"/>
<path d="M274.28 3.89844H194.58V15.4684H274.28V3.89844Z" fill="#263238"/>
<path d="M255.5 9.67969H212.11V15.4597H255.5V9.67969Z" fill="#455A64"/>
<path d="M306.79 243.849C306.79 243.909 305.91 243.989 304.38 244.439C302.235 245.096 300.21 246.092 298.38 247.389C297.116 248.277 295.979 249.334 295 250.529C294.46 251.19 293.994 251.907 293.61 252.669C293.244 253.498 292.953 254.358 292.74 255.239C291.83 258.899 292.11 263.079 292.29 267.439C292.47 271.799 292.18 276.139 290.46 279.629C289.682 281.281 288.576 282.757 287.21 283.969C286.011 285.011 284.663 285.867 283.21 286.509C282.018 287.034 280.765 287.407 279.48 287.619C278.508 287.77 277.522 287.814 276.54 287.749C275.922 287.71 275.31 287.613 274.71 287.459C274.497 287.419 274.289 287.356 274.09 287.269C274.09 287.209 274.96 287.479 276.55 287.549C277.515 287.573 278.479 287.502 279.43 287.339C280.684 287.1 281.903 286.707 283.06 286.169C284.463 285.528 285.761 284.678 286.91 283.649C288.22 282.462 289.278 281.023 290.02 279.419C291.66 276.029 291.94 271.789 291.76 267.419C291.58 263.049 291.31 258.829 292.27 255.089C292.491 254.175 292.799 253.284 293.19 252.429C293.597 251.64 294.09 250.899 294.66 250.219C295.666 248.997 296.845 247.929 298.16 247.049C300.038 245.746 302.13 244.781 304.34 244.199C304.937 244.04 305.546 243.926 306.16 243.859C306.369 243.832 306.58 243.829 306.79 243.849Z" fill="#263238"/>
<path d="M276.59 283.699H270.05V291.659H276.59V283.699Z" fill="#263238"/>
<path d="M343.48 223.75H306.79V263.95H343.48V223.75Z" fill="#455A64"/>
<path d="M335.399 247.562C336.934 241.09 332.932 234.6 326.46 233.066C319.989 231.531 313.499 235.534 311.964 242.005C310.43 248.476 314.432 254.967 320.903 256.501C327.375 258.036 333.865 254.033 335.399 247.562Z" fill="#263238"/>
<path d="M331.17 244C331.17 245.187 330.818 246.347 330.159 247.333C329.499 248.32 328.562 249.089 327.466 249.543C326.37 249.997 325.163 250.116 323.999 249.885C322.836 249.653 321.766 249.082 320.927 248.243C320.088 247.404 319.517 246.334 319.285 245.171C319.054 244.007 319.173 242.8 319.627 241.704C320.081 240.608 320.85 239.67 321.837 239.011C322.823 238.352 323.983 238 325.17 238C326.761 238 328.287 238.632 329.413 239.757C330.538 240.883 331.17 242.409 331.17 244Z" fill="#455A64"/>
<path d="M311.75 231.107C312.369 231.107 312.87 230.606 312.87 229.987C312.87 229.369 312.369 228.867 311.75 228.867C311.132 228.867 310.63 229.369 310.63 229.987C310.63 230.606 311.132 231.107 311.75 231.107Z" fill="#263238"/>
<path d="M337.87 231.107C338.489 231.107 338.99 230.606 338.99 229.987C338.99 229.369 338.489 228.867 337.87 228.867C337.251 228.867 336.75 229.369 336.75 229.987C336.75 230.606 337.251 231.107 337.87 231.107Z" fill="#263238"/>
<path d="M338.11 260.787C338.729 260.787 339.23 260.285 339.23 259.667C339.23 259.048 338.729 258.547 338.11 258.547C337.491 258.547 336.99 259.048 336.99 259.667C336.99 260.285 337.491 260.787 338.11 260.787Z" fill="#263238"/>
<path d="M311.75 261.248C312.369 261.248 312.87 260.746 312.87 260.128C312.87 259.509 312.369 259.008 311.75 259.008C311.132 259.008 310.63 259.509 310.63 260.128C310.63 260.746 311.132 261.248 311.75 261.248Z" fill="#263238"/>
<path d="M346.44 223.75H343.48V263.95H346.44V223.75Z" fill="#263238"/>
<path d="M434.66 95.9805H369.91V143.59H434.66V95.9805Z" fill="white"/>
<path d="M434.66 143.589C434.66 143.589 434.66 143.279 434.66 142.709C434.66 142.139 434.66 141.269 434.66 140.169C434.66 137.929 434.66 134.679 434.6 130.539C434.6 122.239 434.54 110.369 434.49 95.9794L434.71 96.1894L369.96 96.2394L370.22 95.9794C370.22 113.069 370.22 129.269 370.22 143.589L369.99 143.359L416.66 143.469L429.96 143.539H433.5H434.42H434.74C434.64 143.55 434.54 143.55 434.44 143.539H433.55H430.06L416.82 143.599L369.99 143.719H369.75V143.479C369.75 129.159 369.75 112.959 369.75 95.8694V95.6094H370.01L434.76 95.6594H434.97V95.9994C434.92 110.449 434.88 122.369 434.86 130.699C434.86 134.819 434.86 138.049 434.8 140.269C434.8 141.349 434.8 142.189 434.8 142.769C434.8 143.349 434.66 143.589 434.66 143.589Z" fill="#263238"/>
<path d="M369.91 125.331H369.67H368.98H366.34H356.6H342.17H333.64C332.073 125.429 330.517 125.011 329.21 124.141C328.583 123.626 328.079 122.979 327.733 122.246C327.387 121.512 327.208 120.711 327.21 119.901C327.2 119.744 327.2 119.587 327.21 119.431C327.21 113.211 327.21 107.291 327.21 101.911C327.21 99.2206 327.21 96.6606 327.21 94.2706C327.21 93.0706 327.21 91.9106 327.21 90.8106C327.211 89.7755 326.99 88.7523 326.56 87.8106C326.32 87.4181 325.994 87.0859 325.605 86.8396C325.217 86.5934 324.777 86.4398 324.32 86.3906C323.453 86.3238 322.593 86.1833 321.75 85.9706C321.032 85.6371 320.475 85.0332 320.2 84.2906C319.967 83.6913 319.822 83.0614 319.77 82.4206C319.678 81.5464 319.678 80.6649 319.77 79.7906C319.77 79.4906 319.85 79.2706 319.87 79.1206C319.878 79.0401 319.902 78.962 319.94 78.8906C319.94 78.8906 319.94 79.2106 319.88 79.8006C319.797 80.6653 319.797 81.5359 319.88 82.4006C319.952 83.0153 320.107 83.6175 320.34 84.1906C320.467 84.5241 320.659 84.8291 320.904 85.0883C321.15 85.3474 321.444 85.5555 321.77 85.7006C322.598 85.8944 323.441 86.0182 324.29 86.0706C324.77 86.154 325.236 86.3091 325.67 86.5306C326.14 86.7839 326.528 87.1653 326.79 87.6306C327.256 88.6199 327.505 89.6973 327.52 90.7906C327.62 91.9106 327.59 93.0606 327.6 94.2606C327.6 96.6606 327.6 99.2606 327.6 101.911C327.6 107.301 327.6 113.221 327.6 119.451V120.001C327.6 120.738 327.765 121.465 328.083 122.13C328.402 122.795 328.865 123.379 329.44 123.841C330.654 124.652 332.103 125.039 333.56 124.941H342.09L356.52 125.071L366.26 125.211L368.91 125.271H369.59L369.91 125.331Z" fill="#263238"/>
<path d="M322.15 77.9989C322.152 78.4206 322.029 78.8334 321.796 79.185C321.563 79.5366 321.231 79.8112 320.842 79.9739C320.453 80.1366 320.025 80.1803 319.611 80.0992C319.197 80.0182 318.816 79.8161 318.518 79.5186C318.219 79.2211 318.015 78.8416 317.932 78.4282C317.849 78.0147 317.89 77.5859 318.051 77.1961C318.212 76.8063 318.485 76.4731 318.836 76.2386C319.186 76.0041 319.598 75.8789 320.02 75.8789C320.299 75.8776 320.576 75.9315 320.834 76.0374C321.093 76.1434 321.328 76.2993 321.526 76.4963C321.724 76.6933 321.881 76.9275 321.988 77.1853C322.095 77.4432 322.15 77.7197 322.15 77.9989Z" fill="#263238"/>
<path d="M369.91 119.137C369.655 119.175 369.398 119.192 369.14 119.187L366.92 119.237L358.72 119.317L346.47 119.367H342.91C341.659 119.414 340.406 119.377 339.16 119.257C337.804 119.096 336.557 118.437 335.66 117.407C334.795 116.29 334.362 114.898 334.44 113.487V110.307C334.44 104.547 334.44 99.047 334.44 94.047C334.44 91.547 334.44 89.177 334.44 86.957C334.465 85.8912 334.411 84.825 334.28 83.767C334.248 82.8127 333.863 81.9042 333.2 81.217C332.506 80.7 331.674 80.4007 330.81 80.357C329.98 80.3918 329.157 80.187 328.44 79.767C327.857 79.3261 327.439 78.7031 327.25 77.997C327.075 77.4249 326.968 76.8342 326.93 76.237C326.877 75.423 326.903 74.6058 327.01 73.797C327.027 73.5113 327.081 73.229 327.17 72.957C327.17 72.957 327.17 73.247 327.17 73.807C327.101 74.6088 327.101 75.4152 327.17 76.217C327.213 76.7956 327.327 77.3666 327.51 77.917C327.701 78.5624 328.098 79.1278 328.64 79.527C329.32 79.9032 330.094 80.0768 330.87 80.027C331.811 80.0643 332.72 80.3811 333.48 80.937C334.213 81.6805 334.65 82.665 334.71 83.707C334.855 84.7773 334.919 85.8571 334.9 86.937C334.9 89.1704 334.9 91.537 334.9 94.037C334.9 99.037 334.9 104.537 334.9 110.307V113.537C334.828 114.811 335.218 116.068 336 117.077C336.815 118.012 337.948 118.611 339.18 118.757C340.399 118.88 341.625 118.924 342.85 118.887H346.41L358.66 118.937L366.86 119.017L369.08 119.067C369.358 119.066 369.636 119.089 369.91 119.137Z" fill="#263238"/>
<path d="M327.3 74.0603C328.471 74.0603 329.42 73.1112 329.42 71.9403C329.42 70.7695 328.471 69.8203 327.3 69.8203C326.129 69.8203 325.18 70.7695 325.18 71.9403C325.18 73.1112 326.129 74.0603 327.3 74.0603Z" fill="#263238"/>
<path d="M369.91 95.9805V103.11L434.66 102.29V95.9805H369.91Z" fill="#455A64"/>
<path d="M405.436 125.709L407.652 121.877C407.795 121.64 407.732 121.339 407.526 121.165L405.182 119.328C405.23 118.98 405.262 118.615 405.262 118.251C405.262 117.887 405.23 117.523 405.182 117.159L407.526 115.322C407.732 115.148 407.795 114.847 407.652 114.61L405.436 110.778C405.293 110.54 405.008 110.445 404.755 110.54L402 111.649C401.43 111.205 400.812 110.841 400.132 110.556L399.72 107.627C399.693 107.499 399.624 107.384 399.523 107.3C399.423 107.217 399.297 107.17 399.166 107.168H394.732C394.463 107.168 394.226 107.374 394.178 107.643L393.767 110.572C393.102 110.857 392.468 111.221 391.898 111.665L389.143 110.556C388.89 110.461 388.605 110.556 388.462 110.794L386.246 114.625C386.103 114.863 386.167 115.164 386.372 115.338L388.716 117.175C388.668 117.523 388.637 117.887 388.637 118.251C388.637 118.615 388.668 118.98 388.716 119.344L386.372 121.18C386.167 121.355 386.103 121.655 386.246 121.893L388.462 125.725C388.605 125.962 388.89 126.057 389.143 125.962L391.898 124.854C392.468 125.297 393.086 125.661 393.767 125.946L394.178 128.875C394.226 129.129 394.463 129.335 394.732 129.335H399.166C399.435 129.335 399.672 129.129 399.72 128.86L400.132 125.93C400.797 125.645 401.43 125.281 402 124.838L404.755 125.946C405.008 126.041 405.293 125.946 405.436 125.709ZM396.949 121.418C395.207 121.418 393.782 119.993 393.782 118.251C393.782 116.51 395.207 115.085 396.949 115.085C398.691 115.085 400.116 116.51 400.116 118.251C400.116 119.993 398.691 121.418 396.949 121.418ZM417.707 133.562L416.187 132.39C416.218 132.169 416.25 131.931 416.25 131.694C416.25 131.456 416.234 131.219 416.187 130.997L417.691 129.825C417.817 129.715 417.865 129.525 417.77 129.366L416.345 126.912C416.266 126.754 416.076 126.706 415.902 126.754L414.144 127.466C413.78 127.181 413.384 126.944 412.941 126.77L412.672 124.901C412.665 124.817 412.628 124.737 412.566 124.679C412.505 124.62 412.424 124.587 412.339 124.585H409.505C409.331 124.585 409.172 124.711 409.157 124.885L408.887 126.754C408.46 126.944 408.048 127.165 407.684 127.45L405.927 126.738C405.846 126.708 405.757 126.707 405.676 126.736C405.595 126.765 405.527 126.822 405.483 126.896L404.058 129.35C403.979 129.509 403.995 129.699 404.137 129.81L405.642 130.981C405.576 131.443 405.576 131.912 405.642 132.375L404.137 133.546C404.011 133.657 403.963 133.847 404.058 134.005L405.483 136.46C405.562 136.618 405.752 136.665 405.927 136.618L407.684 135.905C408.048 136.19 408.444 136.428 408.887 136.602L409.157 138.47C409.188 138.645 409.331 138.771 409.505 138.771H412.339C412.513 138.771 412.672 138.645 412.687 138.47L412.957 136.602C413.384 136.412 413.796 136.19 414.144 135.905L415.917 136.618C416.076 136.681 416.266 136.618 416.361 136.46L417.786 134.005C417.881 133.863 417.833 133.673 417.707 133.562ZM410.914 133.815C410.347 133.815 409.803 133.59 409.402 133.189C409.002 132.787 408.776 132.243 408.777 131.676C408.777 131.109 409.002 130.565 409.403 130.165C409.805 129.764 410.349 129.539 410.916 129.539C411.483 129.539 412.027 129.765 412.427 130.166C412.828 130.567 413.053 131.111 413.053 131.678C413.053 132.245 412.828 132.789 412.426 133.19C412.025 133.591 411.481 133.816 410.914 133.815Z" fill="#3F51B5"/>
<path d="M66.3101 136.832C66.6201 137.072 107.25 141.912 103.83 149.632C100.41 157.352 64.5701 154.422 64.5701 154.422L66.3101 136.832Z" fill="#FFC107"/>
<path opacity="0.3" d="M66.3101 136.832C66.6201 137.072 107.25 141.912 103.83 149.632C100.41 157.352 64.5701 154.422 64.5701 154.422L66.3101 136.832Z" fill="black"/>
<path d="M148.33 145.742H66.3799V168.812H148.33V145.742Z" fill="#455A64"/>
<path d="M73.2599 148.641H68.6699V166.301H73.2599V148.641Z" fill="#263238"/>
<path d="M78.67 152.352C78.672 152.642 78.588 152.925 78.4288 153.166C78.2696 153.408 78.0423 153.596 77.7757 153.708C77.5091 153.82 77.2152 153.851 76.9313 153.796C76.6475 153.74 76.3864 153.602 76.1812 153.398C75.976 153.194 75.8359 152.934 75.7788 152.651C75.7216 152.367 75.75 152.073 75.8602 151.806C75.9704 151.539 76.1575 151.31 76.3978 151.149C76.6381 150.988 76.9208 150.902 77.21 150.902C77.5955 150.902 77.9653 151.055 78.2388 151.326C78.5123 151.598 78.6673 151.967 78.67 152.352Z" fill="white"/>
<path d="M78.67 158.591C78.672 158.88 78.588 159.163 78.4288 159.404C78.2696 159.646 78.0423 159.835 77.7757 159.947C77.5091 160.059 77.2152 160.089 76.9313 160.034C76.6475 159.979 76.3864 159.84 76.1812 159.637C75.976 159.433 75.8359 159.173 75.7788 158.889C75.7216 158.606 75.75 158.312 75.8602 158.044C75.9704 157.777 76.1575 157.548 76.3978 157.387C76.6381 157.227 76.9208 157.141 77.21 157.141C77.5955 157.141 77.9653 157.293 78.2388 157.565C78.5123 157.836 78.6673 158.205 78.67 158.591Z" fill="white"/>
<path d="M89.01 150.902H84.5V164.462H89.01V150.902Z" fill="#263238"/>
<path d="M95.52 150.902H91.01V164.462H95.52V150.902Z" fill="#263238"/>
<path d="M102.03 150.902H97.52V164.462H102.03V150.902Z" fill="#263238"/>
<path d="M108.55 150.902H104.04V164.462H108.55V150.902Z" fill="#263238"/>
<path d="M115.06 150.902H110.55V164.462H115.06V150.902Z" fill="#263238"/>
<path d="M121.58 150.902H117.07V164.462H121.58V150.902Z" fill="#263238"/>
<path d="M128.09 150.902H123.58V164.462H128.09V150.902Z" fill="#263238"/>
<path d="M134.6 150.902H130.09V164.462H134.6V150.902Z" fill="#263238"/>
<path d="M141.12 150.902H136.61V164.462H141.12V150.902Z" fill="#263238"/>
<path d="M147.63 150.902H143.12V164.462H147.63V150.902Z" fill="#263238"/>
<path d="M161.66 145.742H148.34V168.812H161.66V145.742Z" fill="#263238"/>
<path d="M159.94 160C167.56 164 165.47 173.23 169.6 179.48C170.804 181.243 172.415 182.689 174.297 183.697C176.178 184.705 178.275 185.245 180.41 185.27C182.781 185.259 185.116 184.685 187.223 183.597C189.33 182.509 191.148 180.937 192.53 179.01C196.32 173.89 199.3 159.27 208.96 164.23C209.24 164.38 209.5 163.95 209.21 163.8C198.33 158.21 194.84 177.33 189.09 181.74C187.023 183.416 184.505 184.439 181.855 184.679C179.206 184.92 176.544 184.366 174.21 183.09C169.87 180.63 168.44 176.3 167.34 171.76C166.16 166.87 164.96 162.06 160.19 159.57C159.9 159.42 159.65 159.86 159.94 160Z" fill="#263238"/>
<path d="M67.5899 137.85C67.9799 138.16 66.3099 194.59 42.2799 194.57C17.9999 194.57 12.1699 143.19 14.3799 138.93C17.7599 132.43 46.2499 120.2 67.5899 137.85Z" fill="#FFC107"/>
<path d="M13.26 138.262C13.4528 138.291 13.641 138.345 13.82 138.422L15.36 138.972C16.02 139.232 16.84 139.532 17.8 139.822C18.76 140.112 19.8 140.512 21.08 140.822C22.36 141.132 23.65 141.532 25.08 141.822C26.51 142.112 28.08 142.412 29.76 142.702C33.36 143.23 36.9916 143.514 40.63 143.552C44.2663 143.542 47.8978 143.288 51.5 142.792C53.16 142.522 54.74 142.292 56.19 141.952C57.64 141.612 59 141.312 60.19 140.952C61.38 140.592 62.51 140.272 63.47 139.952C64.43 139.632 65.26 139.372 65.93 139.132L67.47 138.582C67.6501 138.51 67.8381 138.46 68.03 138.432C67.8643 138.53 67.6903 138.614 67.51 138.682L66 139.322C65.34 139.592 64.53 139.922 63.57 140.232C62.61 140.542 61.57 140.952 60.29 141.232C59.01 141.512 57.71 141.972 56.29 142.232C54.87 142.492 53.29 142.842 51.58 143.122C47.9577 143.656 44.3015 143.927 40.64 143.932C36.9765 143.894 33.3204 143.593 29.7 143.032C28.03 142.732 26.45 142.472 24.99 142.102C23.53 141.732 22.18 141.392 20.99 141.032C19.8 140.672 18.68 140.282 17.72 139.952C16.76 139.622 15.95 139.312 15.29 139.022L13.79 138.382C13.6107 138.354 13.4336 138.314 13.26 138.262Z" fill="white"/>
<g opacity="0.3">
<path opacity="0.3" d="M19.8899 134.202C24.7999 140.472 32.4099 142.452 40.3699 142.502C48.3299 142.552 55.8699 139.922 60.8599 133.712C60.8599 133.712 54.8599 127.922 40.0699 127.942C32.8569 127.887 25.8049 130.074 19.8899 134.202Z" fill="black"/>
</g>
<path d="M41.6401 193.662C41.47 193.603 41.3086 193.523 41.1601 193.422C40.7309 193.147 40.329 192.833 39.9601 192.482C38.6106 191.156 37.6167 189.512 37.0701 187.702C36.3374 185.013 36.0669 182.22 36.2701 179.442C36.4001 176.322 36.5401 172.912 36.7001 169.322C37.0201 162.142 37.3301 155.652 37.5901 150.952C37.7301 148.662 37.8401 146.772 37.9201 145.382C37.9201 144.782 38.0101 144.282 38.0401 143.872C38.0398 143.695 38.0668 143.52 38.1201 143.352C38.1354 143.528 38.1354 143.705 38.1201 143.882C38.1201 144.282 38.1201 144.782 38.1201 145.392C38.1201 146.792 38.0201 148.672 37.9501 150.972C37.7901 155.672 37.5301 162.172 37.2101 169.342C37.0401 172.932 36.8801 176.342 36.7401 179.452C36.5116 182.183 36.7381 184.934 37.4101 187.592C37.9185 189.363 38.8366 190.99 40.0901 192.342C40.5792 192.813 41.0968 193.254 41.6401 193.662Z" fill="white"/>
<path d="M38.64 180.701C38.64 180.701 38.9 180.371 39.47 180.511C39.6362 180.555 39.7906 180.635 39.922 180.746C40.0535 180.856 40.1587 180.995 40.23 181.151C40.3155 181.358 40.3355 181.585 40.2872 181.804C40.2389 182.022 40.1247 182.22 39.96 182.371C39.8086 182.543 39.6029 182.657 39.3772 182.695C39.1515 182.734 38.9195 182.693 38.72 182.581C38.5666 182.488 38.4411 182.355 38.3567 182.197C38.2722 182.039 38.2319 181.86 38.24 181.681C38.2366 181.568 38.2571 181.455 38.3002 181.35C38.3432 181.244 38.4079 181.15 38.49 181.071C38.61 180.971 38.71 180.971 38.72 180.991C38.73 181.011 38.52 181.261 38.6 181.661C38.6171 181.764 38.6563 181.862 38.715 181.949C38.7737 182.035 38.8505 182.107 38.94 182.161C39.0537 182.202 39.1767 182.208 39.2939 182.18C39.4111 182.151 39.5175 182.089 39.6 182.001C39.6855 181.92 39.7484 181.818 39.7824 181.705C39.8165 181.592 39.8207 181.472 39.7944 181.357C39.7682 181.242 39.7125 181.136 39.6329 181.049C39.5532 180.962 39.4523 180.897 39.34 180.861C39 180.671 38.67 180.781 38.64 180.701Z" fill="white"/>
<path d="M40.1101 172.371C40.1101 172.371 40.1101 172.271 40.2901 172.241C40.3925 172.225 40.4973 172.233 40.5962 172.264C40.6951 172.295 40.7855 172.349 40.8601 172.421C40.9828 172.526 41.0746 172.663 41.1257 172.816C41.1768 172.969 41.1852 173.133 41.1501 173.291C41.0878 173.488 40.9612 173.658 40.7908 173.774C40.6203 173.89 40.4158 173.945 40.2101 173.931C40.0115 173.936 39.8161 173.881 39.6487 173.774C39.4812 173.667 39.3494 173.513 39.2701 173.331C39.2095 173.192 39.1782 173.043 39.1782 172.891C39.1782 172.74 39.2095 172.59 39.2701 172.451C39.4901 172.001 39.8301 171.931 39.8501 171.991C39.8701 172.051 39.6901 172.231 39.6101 172.581C39.5765 172.674 39.5657 172.774 39.5788 172.873C39.5919 172.971 39.6284 173.065 39.6852 173.146C39.742 173.228 39.8175 173.294 39.9054 173.34C39.9932 173.386 40.0909 173.411 40.1901 173.411C40.2854 173.42 40.3811 173.399 40.4648 173.353C40.5486 173.307 40.6166 173.236 40.6601 173.151C40.6833 173.069 40.6863 172.982 40.6689 172.899C40.6515 172.815 40.6141 172.737 40.5601 172.671C40.4001 172.391 40.1401 172.441 40.1101 172.371Z" fill="white"/>
<path opacity="0.2" d="M37.0801 167.902C37.0801 167.902 50.8501 175.692 61.9701 173.672L62.8001 171.202C62.8001 171.202 46.4501 169.582 37.0801 166.902V167.902Z" fill="black"/>
<path d="M41.25 154.82C41.25 154.82 85.14 158.14 79.61 166.19C74.08 174.24 54.74 169.83 54.74 169.83C54.74 169.83 42.32 160.84 41.25 154.82Z" fill="#FFC107"/>
<path d="M63.4199 171.201C63.0881 171.245 62.7517 171.245 62.4199 171.201C61.7399 171.201 60.7599 171.111 59.5599 171.011C57.1399 170.811 53.8199 170.431 50.1699 169.841C46.5199 169.251 43.2499 168.541 40.8999 167.961C39.7199 167.681 38.7799 167.431 38.1299 167.241C37.7819 167.171 37.4453 167.053 37.1299 166.891C37.4679 166.902 37.8035 166.952 38.1299 167.041L40.9399 167.611C43.3099 168.091 46.5799 168.731 50.2099 169.331C53.8399 169.931 57.2099 170.331 59.5499 170.641L62.3899 171.001C62.7396 171.029 63.0851 171.096 63.4199 171.201Z" fill="white"/>
<path d="M70.62 159.242C70.1801 159.221 69.744 159.151 69.32 159.032L65.81 158.302C62.81 157.682 58.81 156.852 54.23 156.062C49.65 155.272 45.56 154.692 42.56 154.362C41.06 154.192 39.85 154.062 39.01 153.992C38.568 153.98 38.1287 153.92 37.7 153.812C38.139 153.771 38.5809 153.771 39.02 153.812C39.87 153.812 41.09 153.892 42.6 154.012C45.6 154.252 49.77 154.772 54.32 155.572C58.87 156.372 62.96 157.252 65.9 157.962C67.37 158.312 68.55 158.622 69.36 158.852C69.7911 158.943 70.2129 159.073 70.62 159.242Z" fill="white"/>
<g opacity="0.4">
<path opacity="0.4" d="M66.0001 142.201C66.1301 142.481 63.5601 144.041 59.0001 145.611C57.8601 146.001 56.6001 146.411 55.2201 146.741C53.8401 147.071 52.3501 147.401 50.7801 147.741C47.3496 148.317 43.8786 148.618 40.4001 148.641C36.9141 148.602 33.4366 148.287 30.0001 147.701C28.4201 147.391 26.9301 147.121 25.5601 146.701C24.1901 146.281 22.9101 145.961 21.7701 145.571C17.1901 144.001 14.6301 142.441 14.7701 142.151C14.9101 141.861 17.7701 142.721 22.2801 143.801C23.4301 144.071 24.6801 144.361 26.0401 144.591C27.4001 144.821 28.8401 145.061 30.3701 145.291C33.687 145.714 37.0264 145.938 40.3701 145.961C43.7137 145.941 47.053 145.721 50.3701 145.301C51.9001 145.071 53.3701 144.881 54.7101 144.601C56.0501 144.321 57.3201 144.081 58.4601 143.811C63.0001 142.771 65.8101 141.831 66.0001 142.201Z" fill="white"/>
</g>
<path d="M41.1001 137.851C55.7301 137.851 67.5901 125.991 67.5901 111.361C67.5901 96.7311 55.7301 84.8711 41.1001 84.8711C26.4701 84.8711 14.6101 96.7311 14.6101 111.361C14.6101 125.991 26.4701 137.851 41.1001 137.851Z" fill="#FFC107"/>
<path d="M67.3501 107.793C57.8874 109.32 48.2778 109.726 38.7201 109.003C37.8767 108.936 37.0285 109.04 36.226 109.308C35.4235 109.576 34.683 110.002 34.0486 110.562C33.4142 111.122 32.8988 111.803 32.5332 112.566C32.1675 113.329 31.959 114.158 31.9201 115.003C31.8511 116.651 32.428 118.261 33.5281 119.49C34.6282 120.719 36.1646 121.47 37.8101 121.583C48.2001 122.313 57.7301 122.293 66.0001 120.473C66.0001 120.433 68.6101 116.153 67.3501 107.793Z" fill="#263238"/>
<path d="M43.0699 115.252C42.9728 115.244 42.8782 115.216 42.7917 115.171C42.7052 115.126 42.6284 115.064 42.5657 114.99C42.503 114.915 42.4557 114.829 42.4264 114.736C42.3971 114.642 42.3864 114.545 42.3949 114.447C42.4035 114.35 42.4311 114.256 42.4761 114.169C42.5212 114.083 42.5829 114.006 42.6576 113.943C42.7324 113.88 42.8188 113.833 42.9118 113.804C43.0049 113.775 43.1028 113.764 43.1999 113.772C43.2998 113.776 43.3979 113.8 43.4883 113.843C43.5787 113.885 43.6595 113.946 43.7259 114.021C43.7922 114.095 43.8428 114.183 43.8744 114.278C43.906 114.372 43.9181 114.473 43.9099 114.572C43.8873 114.773 43.7865 114.957 43.6293 115.084C43.4721 115.212 43.2712 115.272 43.0699 115.252Z" fill="white"/>
<path d="M62.0001 114.721C61.9029 114.713 61.8084 114.685 61.7219 114.64C61.6354 114.595 61.5586 114.533 61.4959 114.458C61.4332 114.384 61.3859 114.297 61.3566 114.204C61.3273 114.111 61.3166 114.013 61.3251 113.916C61.3337 113.819 61.3612 113.724 61.4063 113.638C61.4514 113.551 61.5131 113.475 61.5878 113.412C61.6626 113.349 61.7489 113.302 61.842 113.273C61.935 113.243 62.0329 113.233 62.1301 113.241C62.23 113.245 62.3281 113.269 62.4185 113.311C62.5089 113.354 62.5897 113.415 62.6561 113.489C62.7224 113.564 62.7729 113.652 62.8046 113.746C62.8362 113.841 62.8483 113.941 62.8401 114.041C62.8174 114.242 62.7166 114.426 62.5595 114.553C62.4023 114.68 62.2014 114.741 62.0001 114.721Z" fill="white"/>
<path d="M57.4 114.893C57.46 114.893 57.3 115.513 56.71 116.313C56.321 116.842 55.829 117.286 55.2636 117.619C54.6981 117.953 54.071 118.168 53.42 118.253C52.7625 118.293 52.1042 118.188 51.4922 117.944C50.8802 117.7 50.3297 117.324 49.88 116.843C49.2 116.123 48.98 115.543 49.03 115.513C49.08 115.483 49.43 115.973 50.13 116.573C51.0184 117.372 52.1862 117.789 53.38 117.733C54.5476 117.56 55.6131 116.97 56.38 116.073C57.05 115.383 57.33 114.853 57.4 114.893Z" fill="white"/>
<path d="M42 84.8906C42 84.8906 42.11 84.8906 42.3 84.8906C42.5868 84.933 42.8707 84.9931 43.15 85.0706C44.176 85.3476 45.1539 85.7793 46.05 86.3506C47.3871 87.2001 48.5565 88.2882 49.5 89.5606C50.6008 91.1417 51.4979 92.8552 52.17 94.6606C53.4254 97.9266 54.0465 101.402 54 104.901C53.9964 105.955 53.9195 107.007 53.77 108.051C53.7388 108.437 53.6547 108.817 53.52 109.181C53.43 109.181 53.7 107.541 53.64 104.901C53.5503 101.477 52.8738 98.095 51.64 94.9006C50.9829 93.1387 50.1203 91.4604 49.07 89.9006C48.1826 88.6511 47.0785 87.5707 45.81 86.7106C44.6235 85.9428 43.3429 85.3311 42 84.8906Z" fill="white"/>
<path d="M23.4299 111.923C23.4299 111.923 23.4299 111.793 23.4299 111.543C23.4308 111.175 23.4508 110.808 23.4899 110.443C23.6082 109.089 23.8526 107.75 24.2199 106.443C25.4432 102.143 27.7105 98.2135 30.8199 95.0025C33.9027 91.722 37.8632 89.3964 42.2299 88.3026C43.5412 87.9992 44.8842 87.8548 46.2299 87.8725C46.5944 87.8734 46.9584 87.8968 47.3199 87.9426C47.5699 87.9426 47.6999 87.9925 47.6999 88.0125C45.8787 88.0379 44.0653 88.2558 42.2899 88.6626C38.0362 89.834 34.1861 92.1517 31.1599 95.3625C28.0985 98.5387 25.8243 102.388 24.5199 106.603C24.0441 108.351 23.68 110.128 23.4299 111.923Z" fill="white"/>
<path d="M48.3801 93.32C48.3801 93.26 48.6301 93.09 48.9901 93.32C49.0987 93.3982 49.1834 93.5051 49.2346 93.6288C49.2858 93.7524 49.3016 93.8879 49.2801 94.02C49.2512 94.1861 49.1743 94.34 49.0587 94.4627C48.9432 94.5853 48.7941 94.6714 48.6301 94.71C48.4642 94.7373 48.294 94.7149 48.1409 94.6454C47.9878 94.576 47.8588 94.4628 47.7701 94.32C47.7013 94.2052 47.665 94.0739 47.665 93.94C47.665 93.8062 47.7013 93.6749 47.7701 93.56C48.0101 93.19 48.3301 93.23 48.3301 93.3C48.3301 93.37 48.1701 93.47 48.1101 93.71C48.093 93.7681 48.0905 93.8295 48.1027 93.8887C48.1149 93.948 48.1415 94.0034 48.1801 94.05C48.224 94.1016 48.2795 94.1421 48.3421 94.1682C48.4046 94.1943 48.4725 94.2052 48.5401 94.2C48.6058 94.1792 48.6655 94.1429 48.7142 94.0942C48.7629 94.0454 48.7992 93.9857 48.8201 93.92C48.8362 93.8635 48.8383 93.8038 48.8261 93.7463C48.8139 93.6888 48.7878 93.6351 48.7501 93.59C48.6001 93.41 48.3901 93.39 48.3801 93.32Z" fill="white"/>
<path d="M29.4799 111.57C29.4799 111.51 29.7299 111.35 30.0899 111.57C30.1977 111.649 30.2817 111.756 30.3328 111.879C30.384 112.002 30.4003 112.138 30.3799 112.27C30.3523 112.436 30.2758 112.591 30.16 112.714C30.0443 112.836 29.8945 112.922 29.7299 112.96C29.5639 112.99 29.3927 112.968 29.2391 112.899C29.0854 112.829 28.9566 112.714 28.8699 112.57C28.8012 112.455 28.7649 112.323 28.7649 112.19C28.7649 112.056 28.8012 111.924 28.8699 111.81C29.1099 111.44 29.4299 111.49 29.4299 111.55C29.4299 111.61 29.2699 111.72 29.2099 111.97C29.1937 112.026 29.1917 112.086 29.2039 112.143C29.2161 112.201 29.2422 112.254 29.2799 112.3C29.3239 112.351 29.3794 112.392 29.4419 112.418C29.5045 112.444 29.5723 112.455 29.6399 112.45C29.7064 112.43 29.767 112.395 29.816 112.346C29.8649 112.297 29.9007 112.236 29.9199 112.17C29.9352 112.113 29.9369 112.053 29.9247 111.996C29.9125 111.939 29.8869 111.885 29.8499 111.84C29.6999 111.67 29.4899 111.64 29.4799 111.57Z" fill="white"/>
<path d="M50.1999 99.8821C50.1999 99.8221 50.4399 99.6621 50.8099 99.8821C50.9176 99.9607 51.001 100.068 51.0505 100.192C51.1 100.316 51.1136 100.451 51.0899 100.582C51.0667 100.749 50.9924 100.904 50.8771 101.026C50.7618 101.148 50.6113 101.232 50.4464 101.265C50.2816 101.298 50.1106 101.279 49.9571 101.21C49.8036 101.141 49.6753 101.027 49.5899 100.882C49.5212 100.767 49.4849 100.636 49.4849 100.502C49.4849 100.368 49.5212 100.237 49.5899 100.122C49.8299 99.752 50.1499 99.8021 50.1399 99.8621C50.1299 99.9221 49.9799 100.042 49.9299 100.282C49.9108 100.338 49.9072 100.399 49.9195 100.457C49.9319 100.515 49.9596 100.568 49.9999 100.612C50.0427 100.665 50.0981 100.706 50.1609 100.733C50.2238 100.759 50.2921 100.769 50.3599 100.762C50.4243 100.744 50.4829 100.71 50.5302 100.662C50.5775 100.615 50.6118 100.556 50.6299 100.492C50.6474 100.435 50.6512 100.374 50.6407 100.315C50.6303 100.256 50.606 100.2 50.5699 100.152C50.4099 100.002 50.2099 100.002 50.1999 99.8821Z" fill="white"/>
<path d="M17.4401 110.872C17.4401 110.822 17.6801 110.652 18.0501 110.872C18.1586 110.952 18.2424 111.061 18.2919 111.186C18.3414 111.312 18.3547 111.449 18.3301 111.582C18.307 111.748 18.2326 111.903 18.1173 112.026C18.002 112.148 17.8515 112.231 17.6867 112.264C17.5218 112.297 17.3508 112.278 17.1973 112.21C17.0439 112.141 16.9155 112.026 16.8301 111.882C16.7592 111.768 16.7217 111.636 16.7217 111.502C16.7217 111.367 16.7592 111.236 16.8301 111.122C17.0701 110.752 17.3901 110.792 17.3801 110.862C17.3701 110.932 17.2201 111.032 17.1601 111.272C17.1462 111.33 17.1453 111.391 17.1574 111.449C17.1695 111.508 17.1943 111.563 17.2301 111.612C17.2728 111.664 17.3284 111.705 17.3916 111.729C17.4547 111.754 17.5231 111.762 17.5901 111.752C17.6568 111.736 17.718 111.703 17.7673 111.655C17.8166 111.608 17.8521 111.548 17.8701 111.482C17.8877 111.424 17.8914 111.363 17.881 111.304C17.8705 111.245 17.8463 111.189 17.8101 111.142C17.6501 111.002 17.4501 111.002 17.4401 110.872Z" fill="white"/>
<path d="M32.0501 114.789C29.1284 114.792 26.2093 114.611 23.3101 114.249C20.3954 114.069 17.4938 113.718 14.6201 113.199C17.5419 113.197 20.4609 113.377 23.3601 113.739C26.2746 113.921 29.1762 114.272 32.0501 114.789Z" fill="white"/>
<path d="M21.1199 113.759C21.1179 114.219 21.2525 114.669 21.5067 115.052C21.7609 115.435 22.1231 115.734 22.5474 115.911C22.9718 116.088 23.4391 116.134 23.89 116.045C24.341 115.956 24.7553 115.735 25.0804 115.41C25.4054 115.085 25.6266 114.67 25.7158 114.219C25.805 113.768 25.7582 113.301 25.5814 112.877C25.4045 112.452 25.1056 112.09 24.7226 111.836C24.3395 111.582 23.8896 111.447 23.4299 111.449C22.8172 111.449 22.2297 111.693 21.7965 112.126C21.3633 112.559 21.1199 113.147 21.1199 113.759Z" fill="#263238"/>
<g opacity="0.4">
<path opacity="0.4" d="M26.08 129.091C26.02 129.231 25.19 129.091 23.94 128.321C22.2237 127.121 20.8293 125.517 19.88 123.651C18.4621 120.954 17.5407 118.024 17.16 115.001C16.7118 111.262 17.0317 107.471 18.1 103.861C20.0793 97.2616 24.5818 91.7098 30.63 88.4107C32.4111 87.4198 34.3233 86.6858 36.31 86.2307C37.71 85.9307 38.52 85.9507 38.55 86.1107C38.67 86.5207 35.63 87.2907 31.55 89.9807C29.2098 91.5513 27.1111 93.4546 25.32 95.6307C23.1579 98.2891 21.5405 101.347 20.56 104.631C19.603 107.92 19.2639 111.358 19.56 114.771C19.8045 117.567 20.4791 120.31 21.56 122.901C22.2586 124.638 23.2761 126.228 24.56 127.591C25.51 128.491 26.17 128.911 26.08 129.091Z" fill="white"/>
</g>
</svg>
